<?xml version="1.0"?>
<svg width="1024" height="1024" xmlns="http://www.w3.org/2000/svg" xmlns:svg="http://www.w3.org/2000/svg" xmlns:xlink="http://www.w3.org/1999/xlink" version="1.1">
 <defs>
  <path d="m0,0l1024,0l0,1024l-1024,0l0,-1024zm311.6,322.02c-0.37,-5.69 -0.38,-11.37 -0.23,-17.06c0,-7.74 3.46,-15.51 7.34,-22.05c4.04,-2.65 3.51,-7.49 4.01,-11.79c-3.25,1.12 -6.11,2.44 -7.94,5.52c-5.86,9.54 -7.21,22.36 -13.07,31.9c-5.24,8.72 -12.89,16.3 -18.74,24.3c-3.93,5.55 -5.74,10.99 -5.64,17.84c9.99,-0.77 19.79,-3.57 29.7,-4.94c1.19,-0.18 2.37,0.08 3.54,0.8c-8.24,4.46 -16.85,4.6 -25.75,6.54c-11.53,2.8 -22.41,6.62 -32.16,13.54c-4.4,3.24 -8.68,6.51 -12.37,10.58c6.76,3.16 13.79,1.95 19.19,6.35c3.68,3.16 7.7,7.07 9.19,11.79c1.21,3.46 2.61,6.86 3.66,10.36c1.4,4.7 1.08,9.33 1.14,14.2c3.58,-5.2 5.84,-10.74 7.71,-16.75c4.81,-12.01 7.02,-23.64 14.34,-34.63c2.75,-3.85 5.83,-7.5 8.99,-11.03c5.05,-5.56 11.39,-9.4 17.74,-13.34c3.88,-2.4 8.09,-3.51 12.45,-4.66c3.77,-0.98 7.59,-2.26 11.44,-2.78c6.22,-0.72 12.69,0.22 18.87,-0.22c1.77,0.03 2.98,-0.76 3.28,-2.56c1.11,-7.9 -1.13,-15.17 -2.39,-22.75c-1.27,-7.22 2.34,-14.4 2.67,-21.89c0.16,-4.57 0.54,-9.02 -1.41,-13.26c-7.31,6.04 -5.3,15.81 -10.57,23.63c-2.31,3.26 -5.2,7.11 -9.19,8.27c-3.98,-6.66 -5.23,-14.27 -5.21,-21.93c0.05,-7.38 -0.45,-14.16 1.63,-21.34c2.41,-8.64 5.11,-16.51 5.49,-25.65c0.05,-1.58 -0.68,-3.08 -1.25,-4.53c-5.36,3.41 -6.71,8.69 -8.43,14.41c-4.52,16.02 -11.3,31.12 -15.97,47.02c-2.28,8.01 -3.39,16.51 -8.28,23.56c-0.92,1.43 -2.31,1.89 -3.78,2.55zm75.66,-25.51c3.43,-0.49 4.67,-3.12 6.84,-5.44c3.6,-4.37 7.67,-8.35 11.16,-12.8c4.08,-5.37 4.53,-11.5 5.5,-17.93c0.56,-3.27 0.76,-6.42 0.46,-9.73c-3.67,2.77 -5.04,8.03 -7.77,11.76c-4.34,7.36 -11.2,12.59 -13.83,20.36c-1.68,4.43 -2.33,9.06 -2.36,13.78zm8.93,39.4c9.87,1.19 19.92,1.96 29.87,1.8c1.56,-0.17 3.41,0.13 4.49,-1.24c3.44,-4.09 3.71,-11.2 7.71,-15.2c5.26,-5.48 12.65,-10.12 16.07,-17.09c3.86,-7.94 5.18,-16.98 9.01,-25.02c2.46,-5.67 5.97,-9.86 4.95,-16.45c-1.85,1.1 -3.42,2.2 -4.46,4.15c-3.36,5.73 -5.98,11.53 -10.43,16.59c-6.96,7.93 -16.39,13.95 -25.19,19.65c-8.49,4.85 -16.41,9.76 -23.25,16.86c-3.97,4.51 -6.73,10.34 -8.77,15.95zm283.56,-9.06c-0.55,-4.62 3.47,-9.11 4.68,-13.57c1.55,-4 1.1,-7.51 -0.36,-11.44c-8.12,4.84 -12.76,13.07 -20.89,17.22c-2.92,1.57 -5.92,1.52 -9.14,1.58c2.04,-5.66 6.39,-9.24 9.09,-14.56c2.95,-5.22 4.13,-11.13 3.12,-17.07c-0.15,-1.65 -1.09,-2.59 -2.09,-3.79c-6.18,5.2 -11.03,11.55 -17.32,16.58c-8.67,6.84 -17.91,12.66 -28.26,16.6c-4.67,1.9 -10.23,3.72 -13.97,7.2c-2.91,2.77 -5.44,5.86 -7.21,9.48c2.25,0.99 4.1,1.38 6.57,1.33c8.38,-0.04 16.67,-0.3 24.97,1.09c9.03,1.41 18.02,2.36 27.12,3.15c13.37,1.95 26.45,0.49 39.96,1.61c8.29,0.12 15.7,2.93 24.01,2.13c2.64,-5.19 5.1,-10.69 6.32,-16.41c-4.84,0.73 -9.23,2.65 -14.18,2.72c0.23,-1.93 0.25,-3.73 1.18,-5.49c2.97,-5.76 8.19,-11.64 10,-18.07c1.45,-6.27 -0.26,-12.38 -0.67,-18.4c0.07,-7.56 3.52,-14.25 2.63,-22.06c-4.2,2.57 -6.58,6.37 -9.57,10.12c-4.11,5.38 -7.92,10.56 -10,17.1c-2.04,6.37 -2.9,12.36 -7.03,17.9c-4.83,6.38 -11.37,12.24 -18.96,15.05zm58.7,-8.94c5.71,-1.59 11.19,-4.19 16.27,-7.2c5.41,-3.11 7.18,-10.2 8.33,-15.88c0.68,-2.89 0.15,-5.09 -0.98,-7.76c-4.03,3.96 -6.04,9.1 -9.7,13.34c-3.45,4.18 -7.78,7.54 -11.26,11.67c-1.49,1.7 -2.01,3.71 -2.66,5.83zm-201.5,3.96c2.95,-3.4 5.76,-7.1 5.52,-11.86c-0.47,-3.52 -2.57,-7.01 -4.13,-10.18c-2.27,-4.22 -3.7,-8.28 -7.3,-11.62c-3.04,2.59 -5.42,5.6 -5.54,9.77c-0.04,4.19 2.27,8.58 4.12,12.26c2.19,4.14 3.94,8.26 7.33,11.63zm-47.51,26.96c-1.28,-0.48 -2.49,-0.76 -3.51,-1.73c-3.76,-3.37 -6.2,-8.59 -9.06,-12.79c-1.79,2.62 -3.29,5.28 -4.58,8.18c-1.83,4.07 -4.13,7.94 -5.78,12.08c-1.44,3.59 -1.35,7.61 -1.15,11.41c0.4,7.41 4.16,13.48 4.29,20.99c0.01,3.76 0.49,8.26 -2.55,11.09c-1.59,1.78 -3.51,1.6 -5.68,1.85c-1.2,-2.92 -2.41,-5.85 -3.65,-8.76c-2.66,-6.24 -6.71,-11.03 -8.62,-17.6c-0.96,-3.56 -1.47,-7.25 -2.03,-10.89c-0.68,-0.07 -1.33,-0.2 -1.96,-0.4c-6.6,5.98 -9.45,15.29 -10.93,23.81c-1.48,7.89 -0.31,15.94 -1.33,23.8c-0.33,3.8 -4.67,4.18 -4.98,7.88c-1.03,7.87 -1.41,15.32 -4.26,22.9c-1.41,3.47 -2.82,6.93 -4.15,10.43c1.87,1.11 3.26,1.54 5.45,1.5c13.01,0.02 26.03,-0.04 39.04,-0.03c6.7,-0.02 13.32,0.12 20,-0.63c5.34,-0.57 10.69,-0.28 16.03,-0.82c8.31,-0.98 16.63,-0.64 24.97,-1.29c13.33,-0.25 26.67,-0.04 40,-0.1c9.5,-0.17 20.21,1.7 29.55,-0.39c2.83,-0.7 4.18,-2.97 5.2,-5.5c3.5,-9.09 2.96,-18.29 2.89,-27.89c0.16,-5.06 -4.24,-9.62 -7.01,-13.52c-2.19,0.81 -4.36,1.79 -6.62,2.36c-1.54,-0.22 -2.07,-1.82 -2.76,-3c-3.4,-7.32 -5.52,-14.91 -7.59,-22.68c-2.1,2.19 -3.93,4.49 -5.52,7.08c-3.81,6.08 -8.19,11.1 -11.24,17.66c-2.4,4.83 -3.21,9.63 -6.87,13.78c-0.75,-2.22 -1.65,-4.18 -1.23,-6.59c0.91,-5.92 3.21,-11.64 4.64,-17.45c1.94,-7.07 2.89,-14.64 1.7,-21.92c-1.5,-7.34 -4.92,-14.57 -7.2,-21.73c-1.02,-3.29 -2.12,-6.54 -3.43,-9.72c-4.88,6.15 -7.69,14.07 -6.73,21.95c0.52,4.65 1.06,9.17 0.46,13.85c-1.33,9.87 -3.7,19.62 -7.11,28.99c-0.65,1.86 -1.8,3.37 -3.02,4.9c-2.26,-2.02 -4.46,-3.49 -4.6,-6.82c-0.63,-9.88 4.24,-19.99 4.11,-30.05c0.24,-6.03 -1.53,-11.6 -4.1,-16.98c-1.18,0.63 -2.31,1.19 -3.13,2.29c-3.11,3.86 -5.52,8.12 -9.16,11.57c-0.68,-1.58 -1.61,-3.29 -1.71,-5.03c-0.46,-8.47 3.9,-16.15 3.02,-24.92c-0.69,-7.7 -4.74,-13.39 -6.68,-20.48c-1.7,-6.33 -0.37,-12.63 -1.7,-18.92c-7.64,5.09 -12.24,13.58 -13.1,22.65c-0.94,8.95 -2.29,17.6 -6.62,25.63zm-116.55,-12.95c5.07,0.77 9.88,0.77 14.96,0.05c-0.54,-8.11 0.07,-16.29 -0.76,-24.36c-2.82,2.21 -3.03,5.21 -4.5,8.27c-2.56,6.07 -7.58,9.79 -9.7,16.04zm190.55,55.1c4.13,-1.01 5.88,-5.3 7.97,-8.57c3.2,-5.2 4.19,-11.19 7.26,-16.41c5.32,10.46 4.23,21.25 10.29,31.11c2.38,-0.62 4.95,-1.58 7.43,-1.5c2.59,1.95 4.27,5.37 5.88,8.13c2.16,4.06 5.01,8.62 5.36,13.28c0.44,5.64 0.08,11.38 -1.01,16.92c-0.79,4.65 -1.88,10.25 -0.57,14.85c1.53,2.81 6.08,4.03 8.9,5.17c5.05,1.97 10.41,2.18 15.05,-0.93c1.52,-2.41 1.79,-5.7 2.59,-8.42c0.68,-3.1 2.24,-6.22 2.49,-9.37c-1.41,-3.53 -3.83,-6.57 -5.17,-10.15c-2.73,-7.02 -5.06,-14.29 -9.19,-20.89c-3.45,-5.65 -11.64,-8.52 -13.84,-14.81c-0.88,-4.98 -0.34,-10.32 -0.23,-15.37c4.07,2 6.79,5.34 10.46,7.88c3.58,2.5 7.1,4.83 11.39,5.9c3.19,-5.23 6.11,-10.75 9.75,-15.61c3.98,-5.4 9.95,-9.69 15.45,-13.45c4.12,-2.81 8.51,-4.77 13.49,-5.41c-1.23,1.72 -2.48,3.32 -4.37,4.37c-4.67,2.74 -9.47,4.89 -13.66,8.44c-6.3,5.4 -11.79,11.39 -14.73,19.3c-2.66,6.47 -2.78,12.79 -3.64,19.63c-0.62,5.49 0.44,11.32 1.72,16.66c0.68,3.09 2.53,5.34 4.64,7.58c2.91,-3.48 4.08,-7.78 6.84,-11.34c2.44,-3.19 5.2,-6.13 7.76,-9.21c3.85,-4.63 8.24,-8.47 11.39,-13.67c-2.01,-0.63 -4.04,-1.25 -6.05,-1.89c2.46,-1.79 5.06,-3.39 7.63,-5c-3.39,-2.68 -6.89,-5.02 -9.72,-8.33c6.45,-1.32 10.23,2.32 15.48,5.15c-1.51,-5.04 -4.49,-8.9 -4.88,-14.27c5.87,2.72 7.21,8.47 9.19,14.04c2.7,-1.96 6.15,-3.86 5.77,-7.74c0.19,-4.68 -2.44,-11.49 0.22,-15.54c2.8,4.83 3.12,9.99 3.85,15.4c5.04,-1.05 8.4,-4.15 12.72,-6.63c6.55,-3.96 14.58,-6.33 21.67,-9.13c3.84,-0.78 3.07,-6.4 4.19,-9.34c-4.68,-2.17 -10.62,-1.94 -15.71,-2.7c-16.14,-2.13 -32.39,-2.35 -48.5,-4.54c-6.11,-0.61 -11.8,-2.19 -17.96,-2.26c-8.93,-0.12 -17.96,-0.11 -27.01,-1.11c-10.24,-1.31 -20.07,-2.38 -30.37,-0.89c-7.4,1.08 -16.32,1.6 -22.85,5.4c-1.75,1.15 -3.9,2.36 -3.49,4.81c0.76,7.03 5.33,13.59 6.67,20.64c1.35,6.91 -0.36,12.92 -0.55,19.82zm-229.35,-44.69c1.2,3.78 3.2,7.84 6.21,10.48c1.5,0.38 3.32,-0.43 4.79,-0.78c7.72,-2.46 15.26,-4.28 23.41,-2.85c9.15,1.08 17.89,4.56 25.19,10.17c2.67,2.21 5.13,4.62 7.97,6.62c0.92,-1.96 1.82,-3.93 2.68,-5.92c-7.12,-10.06 -19.78,-16.36 -31.28,-19.93c-6.31,-2.05 -12.52,-1.94 -19.07,-1.89c-6.71,0.1 -13.81,1.19 -19.9,4.1zm51.53,-3.48c3.62,3.35 7.98,5.63 11.63,8.93c10.55,9.11 19.95,19.48 24.42,32.95c2.86,6.55 4.28,13.29 5.8,20.23c1.11,-4.59 1.85,-9.18 2.12,-13.89c0.46,-6.82 1.87,-13.68 4.33,-20.06c2.17,-5.73 7.08,-10.57 11.88,-14.21c2.07,-1.74 4.22,-1.28 6.71,-1.29c-0.02,-3.52 0.19,-6.72 -3.18,-8.83c-6.65,-3.65 -14.82,-4.98 -22.32,-5.13c-6.22,-0.07 -12.34,-0.2 -18.52,0.55c-7.67,0.89 -15.22,-0.26 -22.87,0.75zm134.42,12.35c2.29,-1.8 4.63,-3.53 6.85,-5.44c3.09,4.41 6.09,9.2 7.79,14.33c2.57,9.46 -0.38,18.55 0.1,27.33c1.14,-1.19 2.23,-2.25 2.62,-3.91c1.61,-5.75 0.69,-12.49 1.06,-18.49c0.23,-7.92 2.32,-15.72 2.24,-23.63c-5.69,-1.34 -13.37,-2.89 -18.85,-0.44c-2.23,2.51 -1.97,7.13 -1.81,10.25zm-55.92,35.55c0.7,-1.56 1.36,-2.94 1.11,-4.71c-0.55,-6.79 -2.96,-13.18 -3.6,-19.89c-0.62,-6.75 1.67,-12.26 2.18,-19.35c-2.24,0.33 -4.27,0.36 -5.99,2.03c-2.2,5.48 -0.41,12.79 -0.11,18.61c1,7.85 0.74,17.12 6.41,23.31zm-145.33,47.1c-3.02,-7.23 -6.47,-13.81 -7.22,-21.78c-2.67,-18.34 3.52,-37.57 17.44,-50.02c1.77,-1.7 4.25,-3.16 5.55,-5.26c-0.68,-3.12 -2.85,-6.04 -4.71,-8.59c-0.86,-1.01 -2.06,-2.6 -3.58,-1.89c-6.65,2.63 -12.46,8.58 -17.27,13.73c-6.51,7.55 -11.04,16.96 -13.69,26.52c-1.67,4.65 1.5,10.47 3.72,14.49c3.41,5.3 3.54,11.51 7.34,16.63c4.39,5.88 6.32,11.88 12.42,16.17zm409.5,-87.34c-0.02,2.63 0.65,4.8 1.78,7.15c4.79,-1.01 9.49,-1.98 14.21,-3.4c1.17,-0.26 1.88,-0.95 2.73,-1.74c-6.17,-1.54 -12.34,-2.6 -18.72,-2.01zm-324.46,29.2c-1.47,-3.94 -4.33,-6.39 -7.32,-9.17c-8.61,-7.45 -18.87,-12.6 -30.5,-12.34c-9.45,-0.5 -18.66,2.15 -26.43,7.51c-1.09,0.92 -2.29,1.46 -2.22,3.07c2.03,2.49 5.12,4.29 7.87,5.88c8.35,4.45 16.2,8.66 25.67,10.22c11.11,1.8 23.28,1.2 32.93,-5.17zm280.77,235.77c-2.42,1.32 -5.84,1.09 -8.54,1.25c-3.7,0.05 -7.36,0.46 -11.02,0.92c6.74,-0.37 13.28,0.98 20.01,0.89c3.48,-0.11 6.8,1.93 10.04,3.18c-1.94,-2.33 -4.12,-4.39 -6.44,-6.34c-7.39,-6.69 -14.28,-13.87 -19.85,-22.19c-6.51,-8.39 -11.06,-17.81 -15.44,-27.43c-7.53,-17.42 -11.3,-35.84 -12.79,-54.7c-0.17,-9.97 -0.2,-20.04 0.07,-30.01c1.02,-13.2 3.84,-26.33 7.39,-39.06c1.15,-3.14 1.4,-6.56 4.83,-8c-0.24,2.27 -0.59,4.51 -1.26,6.69c-4.15,12.71 -6.54,26.06 -7.84,39.35c-0.32,5.97 -1.36,12.09 -0.83,18c0.57,6.87 0.86,13.74 1.77,20.58c2.07,14.04 5.51,27.84 10.67,41.06c6.01,14.42 13.95,27.95 24.34,39.66c5.87,7.24 13.01,13.02 20.51,18.46c2.65,1.91 5.61,3.08 8.67,4.15c-4.15,-4.2 -8.8,-7.7 -13.17,-11.63c-4.52,-4 -8.27,-9.11 -12.31,-13.71c-3.94,-4.51 -7.29,-9.46 -10.2,-14.69c-4.4,-7.94 -8.68,-15.65 -11.67,-24.26c-3.64,-9.86 -5.85,-20.02 -7.96,-30.29c-1.54,-7.59 -1.84,-15.57 -2.65,-23.28c-1.1,-11.99 0.45,-23.22 1.84,-35.1c1.54,-9.64 3.64,-19.21 6.43,-28.57c1.76,-6.51 3.91,-12.85 7.43,-18.64c0.72,-0.16 1.44,-0.32 2.16,-0.49c-1.41,5.89 -3.9,11.22 -5.93,16.97c-4.42,11.05 -6.22,23.58 -7.66,35.33c-0.81,4.46 -1.02,8.93 -0.94,13.46c0.19,9.22 -0.56,18.11 1.12,27.24c1.55,14.17 4.89,27.82 10.08,41.1c4.95,13.8 12.49,26.26 21.27,37.94c9.81,11.4 20.07,21.53 33.57,28.49c4.95,2.37 10.28,4 15.52,5.59c3.26,0.81 6.54,1.93 9.62,-0.03c-6.55,-3.58 -13.58,-5.85 -19.86,-9.99c-26.16,-16.87 -45.75,-43.07 -55.18,-72.67c-5.12,-15.23 -8.43,-31.56 -8.2,-47.67c-0.02,-7.92 -0.19,-15.74 1.12,-23.58c2,-17.6 7.49,-34.19 15,-50.16c2.65,-5.91 6.39,-10.73 9.77,-16.2c3.66,-5.82 8.2,-11.1 12.83,-16.15c2.28,-2.54 4.83,-3.62 8.12,-4.3c-1.5,2.63 -3.35,4.82 -5.54,6.9c-4.78,4.6 -7.9,9.9 -11.88,15.16c-5.18,6.74 -9.03,14.78 -12.5,22.53c-2.95,7.07 -6.18,14.31 -8.1,21.73c-2.76,10.72 -4.09,22.01 -5.02,33.03c-0.96,11.25 0.39,21.97 1.88,33.08c0.71,4.97 1.98,9.72 3.13,14.58c2.41,11.35 7.59,22.28 12.76,32.61c4.22,8.63 9.9,15.73 15.69,23.32c3.65,4.84 8.08,8.37 12.46,12.52c6.95,6.44 14.71,11.75 23.21,15.95c9.05,4.92 18.65,8.59 28.87,10.13c5.27,0.62 10.7,0.25 16,0.33c6.58,-0.07 12.58,0.57 19.03,-1.12c6.08,-1.56 12.34,-2.66 17.95,-5.25c8.1,-3.71 16.08,-6.26 23.33,-11.76c5.55,-4.42 10.82,-9.18 15.73,-14.32c4.92,-5.16 10.04,-9.13 13.92,-15.19c2.87,-4.46 5.83,-8.86 8.61,-13.37c6.54,-11.43 11.53,-23.83 14.67,-36.61c1.12,-6.58 2.72,-13.17 3.23,-19.82c0.26,-10.67 0.03,-21.36 0.06,-32.04c0.11,-7.07 -1.35,-13.61 -2.66,-20.51c-1.16,-5.91 -3.56,-11.06 -5.32,-16.8c-2.6,-8.35 -5.64,-16.25 -10.64,-23.5c-6.24,-8.77 -12.7,-17.15 -20.38,-24.72c-4.16,-4.07 -7.79,-8.15 -12.42,-11.66c-6.24,-4.82 -12.96,-8.13 -19.54,-12.48c-2.83,-1.9 -5.93,-3.16 -9.16,-4.21c-3.83,-1.25 -7.41,-3.12 -11.24,-4.36c-11.6,-3.14 -22.4,-2.1 -34.17,-2.06c-14.46,-0.19 -29.16,0.13 -42.74,5.7c-6.59,2.86 -13.49,4.85 -20.1,7.66c-15.59,6.26 -29.67,16.78 -41.21,28.89c-11.71,10.6 -17.16,25.65 -25.45,38.54c-2.05,3.55 -2.66,8.06 -3.95,11.97c-1.43,4.45 -2.65,8.92 -2.96,13.62c-0.45,7.75 -2.43,15.12 -2.15,22.92c0.18,9.67 -0.56,18.6 0.93,27.93c1.14,11.86 3.57,23.53 7.05,34.91c3.38,9.26 7.11,18.36 11.82,27.03c3.13,6.68 7.7,12.03 12.03,17.93c6.12,7.46 13.32,13.51 20.33,19.64zm-267.31,-193.87c-0.86,5.19 -2.5,10.22 -4.8,14.95c-0.91,2.02 -2.16,4.2 -2.45,6.42c0.43,2.7 1.81,5.33 3.43,7.51l1.14,0.02c1.62,-2.07 2.73,-4.64 3.8,-7.04c2.05,-4.82 4.01,-9.53 4.94,-14.7c1.15,-6.48 1.35,-13.2 1.06,-19.76c-0.47,-8.84 -3.08,-16.85 -6.23,-25.04c-1.65,-4.21 -3.82,-8.09 -6.22,-11.91c-1.32,-1.95 -2.29,-3.82 -4.55,-4.8c-1.59,3.11 -3.21,5.98 -0.84,9.22c5.7,8.34 9.64,17.63 10.93,27.69c0.45,5.77 0.52,11.69 -0.21,17.44zm-46.91,38.22c4.64,0.06 9.04,-0.07 13.31,-2.11c0.09,-8.21 -0.98,-15.52 1.12,-23.58c1.66,-6.27 3.77,-13.19 8.2,-18.08c2.5,-2.81 5.18,-5.55 8.18,-7.82c3.33,-2.61 8.2,-3.38 12.27,-4.16c0.38,-4.63 -1.33,-8.41 -2.8,-12.67c-0.96,-2.8 -2.31,-5.4 -3.77,-7.96c-4.06,2.06 -7.96,4.24 -12.34,5.47c-6.53,1.97 -13.84,1.94 -20.59,1.45c-8.55,-0.82 -17.05,-4.06 -24.93,-7.36c-4.83,-1.96 -8.81,-5.08 -13.13,-7.9c-1.83,-0.89 -3.72,-2.79 -5.44,-0.65c-6.23,6.64 -10.36,16.07 -10.94,25.14c1.58,1.42 4.63,1.48 6.65,1.99c12.18,1.94 23.59,7.09 31.82,16.46c6.01,6.53 9.75,15.05 11.56,23.67c1.33,6.07 0.83,11.87 0.83,18.11zm-160.31,15.71c4.53,-3.16 6.65,-8.13 10.87,-11.63c2.47,9.05 2,18.85 2.74,27.61c2.22,10.5 6.66,20.85 13.54,29.17c0.97,-1.03 1.94,-1.7 2.12,-3.21c1.29,-6.35 1.17,-12.95 -0.43,-19.23c-2.1,-7.93 -6.26,-14.66 -8.3,-22.67c-1.6,-6.74 -2.74,-13.27 -1.37,-20.18c0.99,-7.32 3.66,-14.2 5.03,-21.41c0.7,-3.35 -1.96,-5.98 -4.39,-7.82c-4.24,-3.04 -9.61,-5.46 -14.89,-5.5c-5.54,0.17 -10.73,3.9 -16.19,5.5c2.81,-4.91 7.84,-7.17 13.2,-8.1c6.2,-1.08 12.51,0.99 17.69,4.35c2.71,1.82 5.46,3.58 8.31,5.19c3.16,-2.63 6.05,-5.56 9.16,-8.25c3.03,5.45 3.68,11.52 5.54,17.76c1.55,5.35 2.7,11.71 5.87,16.35c2.14,3.1 5.17,4.75 8.44,6.4c1.52,-9.59 2.94,-19.09 2.65,-28.82c0.3,-10.2 -2,-20.75 -4.22,-30.71c-1.42,-6.28 -4.6,-12.33 -10.43,-15.5c-5.03,-2.52 -11.56,-2.55 -17.06,-2.37c-3.42,0.07 -6.51,1.19 -9.37,3c-5.91,3.73 -11.62,7.75 -16.93,12.31c-7.27,6.23 -14.95,10.27 -21.05,17.87c-5.84,7.23 -10.85,16.85 -10.47,26.36c-0.06,7.39 3.88,14.76 8.86,20.03c6.09,6.29 12.14,11.88 21.08,13.5zm416.54,-73.48c-0.05,-3.57 0.45,-6.73 -1.87,-9.75c-3.16,-4.05 -8.36,-7.53 -13.64,-7.54c-0.01,4.26 2.04,7.33 5.15,10.01c3.17,2.85 6.46,5.49 10.36,7.28zm-355.37,62.32c-5.17,-0.61 -9.96,-2 -13.34,-6.22c-5.54,-6.85 -6.86,-15.68 -8.76,-24.01c-0.89,-3.11 -1.1,-6.24 -3.87,-8.3c-5.43,6.73 -9.92,14.56 -12.43,22.86c-2.18,8.23 -2.03,17.38 1.03,25.38c3.73,10.39 8.09,19.57 9.56,30.64c1.18,8.25 0.63,16.68 -3.71,23.98c-0.81,-0.09 -1.6,-0.1 -2.39,-0.05c-2.21,-2.96 -3.84,-6.2 -5.38,-9.54c-3.75,-8.09 -8.17,-14.85 -9.93,-23.75c-1.73,-7.09 -1.3,-14.33 -3.31,-21.34c-5.47,3.36 -9.21,9.74 -13.07,14.77c-6.25,8.15 -8.79,18.15 -9.93,28.2c-0.67,10.99 0.04,22.06 -0.29,33.06c-0.13,3.76 -1.04,7.34 -2.12,10.92c-3.02,-2.25 -4.04,-5.4 -5.48,-8.73c-2.99,-7.12 -3.75,-14.01 -8.94,-20.1c-0.97,1.22 -1.9,2.28 -2.2,3.85c-0.95,4.75 -1.21,9.45 -2.86,14.07c-2.62,7.82 -8.83,14.63 -13.01,21.86c-5.11,8.4 -7.43,17.77 -8.67,27.43c-0.94,6.72 -0.12,13.79 2.29,20.13c1.04,2.95 3.99,3.74 6.66,4.66c12.39,3.58 25.37,3.57 38.13,4.65c6.51,0.67 13.24,1.12 19.76,0.4c5.75,-0.59 9.21,-6.9 11.98,-11.3c4.77,-7.42 6.76,-19.01 14.6,-23.82c1.31,2.28 2.64,4.54 3.96,6.82c7.62,-4.38 9.27,-12.08 15.49,-17.44c0.6,1.77 1.35,3.65 1.4,5.52c0.17,7.69 -2.36,14.89 -1.82,22.63c4.98,0.38 8.48,-3.09 11.21,-6.79c4.54,-6.63 8.25,-14.6 8.29,-22.76c-0.17,-8.47 -1.67,-18.28 0.48,-26.57c1.48,-4.64 3.61,-9.44 6.66,-13.25c1.31,-1.61 2.47,-1.25 4.3,-1.08c0.91,5.47 0.85,11.57 4.12,16.2c3.38,4.84 8.28,8.42 11.68,13.32c5.76,8.21 8.72,18.85 14.74,26.87c4.93,-3.82 8.25,-9.97 7.1,-16.31c-0.79,-5.05 -1.94,-9.97 -1.98,-15.12c4.28,0.72 8.07,2.46 10.54,6.18c5.43,8.1 6.81,19.43 11.6,27.71c4.74,-7.24 5.05,-17.57 11.8,-24.56c3.06,6.04 2.3,12.5 4.82,18.67c1.73,4.38 5.06,8.33 7.49,12.45c2.54,4.05 4.56,8.7 7.61,12.39c1.31,1.96 3.87,1.48 5.91,1.67c5.75,-0.04 11.18,0.21 16.83,-0.53c0.84,-8.32 0.21,-16.68 0.96,-25.02c0.95,-8.73 0.13,-17.22 2.27,-25.83c2.86,-12.48 5.11,-25.44 2.53,-38.2c-4.02,2.34 -5.34,6.07 -7.75,9.81c-3.83,6.53 -8.78,11.59 -13.62,17.32c-4.46,5.32 -8.88,10.53 -12.65,16.39c-1.67,2.62 -3.6,5.04 -5.64,7.39c-0.98,-1.27 -2,-2.25 -2.15,-3.94c-1.14,-9.25 0.99,-18.49 5.51,-26.59c5.96,-10.92 12.12,-20.92 15.89,-32.97c1.42,-5.08 2.71,-10.61 2.11,-15.91c-0.44,-4.16 -1.03,-8.31 -1.83,-12.42c-4.57,3.21 -6.73,7.72 -10.63,11.69c-5.4,6.08 -12.22,10.37 -17.85,16.17c-5.16,4.99 -8.94,10.13 -15.05,13.76c-3.95,-3.49 -5.69,-8.52 -5.38,-13.72c1.02,-15.58 8.96,-27.33 11.22,-42.47c0.78,-5.27 2.02,-11.02 1.39,-16.33c-1.12,-8.75 -2.03,-16.83 -6.96,-24.41c-2.67,-4.2 -6.97,-6.69 -11.78,-7.64c-2.42,5.25 -3.52,10.91 -5.91,16.16c-0.9,1.93 -1.84,3.72 -3.54,5.07c-4.58,0.53 -9.64,-2.48 -13.25,-5.06c-5.26,-4.31 -10.65,-9.48 -13.38,-15.79c-3.57,-7.91 -6.56,-16.09 -9.69,-24.17c-1.15,-2.48 -2.32,-5.44 -5.25,-6.17c-2.12,4.2 -3.02,9.22 -4.5,13.71c-2.02,6.24 -3.94,12.53 -6.27,18.64c-2.42,6.56 -4.98,13.38 -5.04,20.46c-0.03,4.8 0.23,9.56 -0.31,14.35zm48.47,-56.71c-1.13,8.38 2.27,17.53 5.53,25.15c0.79,1.21 1.53,4.12 3.35,3.78c2.6,-4.78 3.45,-10.2 6.45,-14.84c8.89,1.35 15.04,7.17 20.08,14.2c2.16,3.09 3.75,6.51 4.41,10.24c0.9,4.8 1.14,9.44 3.53,13.85c0.72,-1.64 1.47,-3.16 1.48,-5c0.21,-5.75 -0.06,-11.93 -2.15,-17.36c-2.33,-5.87 -4.58,-11.34 -9.31,-15.73c-8.49,-8.99 -21.13,-13.95 -33.37,-14.29zm69.46,47.33c8.71,-4.15 15.86,-12.2 19.99,-20.85c3.77,-7.55 5.86,-16.57 4.61,-24.98c-7.79,0.17 -14.3,4.82 -18.28,11.31c-6.81,9.96 -8.74,22.83 -6.32,34.52zm-27,12.98c-0.87,4.47 -1.65,8.89 -2.01,13.44c6.08,0.6 11.73,-0.84 17.54,-2.37c12.83,-3.16 24.42,-11.41 32.54,-21.71c1.53,-2.98 -2.09,-7.49 -3.62,-9.95c-4.43,3.8 -7.72,8.38 -12.87,11.4c-9.59,6.36 -20.31,8.32 -31.58,9.19zm144.02,27.62c10.73,-1.23 20.87,-4.65 31.74,-5.18c11.38,-1.29 22.65,-0.79 34.07,-0.84c10.19,0.25 20.39,1.47 30.5,2.7c8.16,0.89 15.54,3.11 23.85,2.13c0.79,-8.08 -1.07,-15.41 -2.69,-23.25c-1.04,-4.13 -1.94,-8.44 -5.66,-11.04c-3.83,-2.61 -8.74,-4.57 -13.27,-5.49c-7.04,-0.98 -14.7,-0.13 -21.7,0.73c-8.1,0.55 -16.29,0.39 -24.35,-0.61c-8.51,-0.73 -17.14,-0.33 -25.68,-0.44c-6.07,0.08 -13.2,-0.37 -18.86,2.09c-3.24,1.34 -3.97,4.77 -4.8,7.82c-1.85,8.42 -2.68,17.21 -3.47,25.79c-0.18,1.88 0.02,3.74 0.32,5.59zm-110.79,-16.66c1.45,4.64 2.09,10.23 4.71,14.35c9.25,0.05 18.6,-1.78 27.89,-1.73c13.35,0.08 26.7,0 40.04,0.05c10.41,0.08 20.69,3.07 31.07,2.8c1.16,-3.7 1.86,-7.47 2.39,-11.3c1.3,-8.68 3.66,-16.59 2.81,-25.38c-6.77,-0.5 -13.5,-0.15 -20.31,-0.24c-6.37,-0.09 -12.62,1.2 -19,1.06c-8.23,-0.13 -15.98,0.38 -24.07,-0.71c-6.84,-0.79 -13.63,0.17 -20.46,-0.75c-1.73,-0.05 -3.32,-0.71 -4.74,0.57c-2.99,2.67 -5.16,6.28 -7.85,9.25c-3.81,4.5 -8.97,7.22 -12.48,12.03zm-24.11,15.75c3.27,0.92 6.81,1.64 10.16,0.68c2.71,-1.69 4.72,-4.75 6.64,-7.26c1.78,-2.3 3.11,-4.62 4.05,-7.39c-4.78,1.02 -8.87,3.51 -13.53,4.9c-2.11,0.81 -5.25,1.39 -6.65,3.28c-0.75,1.73 -0.53,3.94 -0.67,5.79zm-13.56,-4.9c-0.18,1.61 -0.31,3.21 -0.48,4.81c2.5,0.03 5,0.04 7.5,0.09c0.87,-1.94 1.41,-3.77 1.71,-5.88c-3.08,-0.21 -5.81,-0.02 -8.73,0.98zm155.04,32.16c-0.51,2.6 -0.92,5.05 -2.62,7.19c-1.7,2.53 -4.62,5.01 -5.4,7.99c-0.61,4.23 -0.2,8.64 -0.28,12.91c0.08,4.24 -0.32,8.67 0.4,12.86c1.31,1.92 3.98,2.27 6.1,2.63c6.31,0.78 12.67,1.16 19,1.84c10.13,0.93 19.88,-0.58 29.98,-0.99c8.65,-1.09 17.39,-1.01 26.04,0.12c13.02,0.73 26.02,-0.52 39.05,0.81c2.81,-4.5 2.69,-9.17 2.59,-14.28c-0.08,-5.99 0.2,-11.95 -0.34,-17.94c-1.95,-1.07 -4.09,-2.1 -5.75,-3.6c-1.42,-1.91 -1.28,-4.65 -0.56,-6.82c1.97,0.17 4.82,1.18 6.2,-0.71c0.7,-5.25 0.3,-10.67 0.38,-15.96c-0.11,-2.05 0.04,-5.51 -1.79,-6.87c-2.59,-1.11 -5.63,-1.38 -8.41,-1.8c-16.11,-2.24 -32.31,-4.29 -48.52,-5.64c-9.41,-0.24 -19.22,-0.74 -28.5,0.97c-9.63,1.66 -20.5,2.14 -29.79,5.23c-2.85,1.02 -5.32,2.27 -5.81,5.57c-0.51,4.04 -1.04,9.31 0.81,13.06c2.19,1.42 4.91,2.25 7.22,3.43zm-136.43,46.04c5.44,-2.34 8.43,-7.03 12.24,-11.38c4.56,-5.69 9.58,-11.21 13.42,-17.42c3.34,-5.33 4.67,-11.8 8.27,-16.9c1.35,-1.96 3.31,-2.36 5.42,-3.11c1.42,3.18 2.57,6.37 2.66,9.89c0.19,6.66 0.06,13.35 0.02,20.01c0,5.72 -1.63,11.27 -1.85,16.94c-0.22,1.86 0.67,3.13 2.53,3.39c4.93,0.55 9.98,0.23 14.94,0.31c8.84,0.14 17.17,-1.87 25.97,-2.08c6.01,-0.16 12.04,0.03 18.04,-0.02c5.74,-0.01 11.53,-1.16 17.22,-1.91c1.52,-0.33 3.94,-0.48 4.89,-1.84c1.02,-4.65 -0.26,-10.13 -0.44,-14.89c-0.27,-3.99 0.13,-8.45 -1.04,-12.28c-0.48,-2.14 -3.11,-2.79 -4.83,-3.7c-1.1,-3.84 -1.44,-7.37 -1.31,-11.35c2.1,-1.4 5.05,-2.74 6.43,-4.88c0.91,-3.07 0.69,-6.6 0.53,-9.78c-0.21,-2.52 -1.02,-5.86 -3.77,-6.7c-5.41,-1.55 -11.43,-1.62 -17.02,-2.15c-8.75,-0.95 -17.79,-0.44 -26.66,-0.56c-9.31,0.09 -18.79,-0.34 -28,0.57c-5.97,0.55 -11.94,0.18 -17.91,0.46c-2.02,0.16 -4.01,0.43 -4.69,2.66c-1.67,5.42 -1.6,11.29 -3.12,16.79c-2.95,12.21 -11.93,23.32 -17.94,34.19c-2.7,4.87 -3.76,10.23 -4,15.74zm-25.44,-42.47c5.55,-2.95 9.47,-7.53 12.97,-12.63c2.16,-3.01 2.44,-6.81 1.49,-10.32c-1.5,-3.29 -6.35,-4.12 -9.4,-2.75c-2.63,2.19 -3.75,6.41 -4.89,9.54c-1.49,4.89 -2.78,11.48 -0.17,16.16zm-159.85,21.96c2.82,-7.92 5.77,-18.27 0.12,-25.64c-2.62,3.9 -4.11,8.55 -4.59,13.2c-0.3,4.7 1.57,8.86 4.47,12.44zm449.24,19.85c-0.28,-2.52 -1.05,-5.05 -1.99,-7.4c-1.84,-4.63 -2.8,-9.06 -5.32,-13.38c-1.26,5.8 -1.11,12.91 -0.26,18.76c2.16,2.1 4.72,2.18 7.57,2.02zm-379.89,29.72c-6,2.79 -7.76,8.68 -13.21,12.4c-1.98,-1.35 -3.98,-2.68 -6,-3.99c-4.84,6.94 -8.98,14.79 -11.94,22.71c3.35,1.88 7.98,1.97 11.74,2.21c7.07,0.44 13.94,-0.83 20.98,-0.86c8.67,-0.17 17.37,0.2 26.03,-0.17c16.51,-1.19 32.94,-4.82 49.56,-6.79c12.9,-0.98 26.24,0.59 39.06,-1.09c1.93,-0.17 3.23,-1.22 4.66,-2.41c-2.18,-5.71 -6.27,-9.72 -9.37,-14.89c-3.29,-5.13 -5.29,-10.82 -8.91,-15.75c-3.66,5.49 -4.94,11.57 -7.54,17.54c-1.74,-1.14 -3.1,-2.37 -4.12,-4.22c-5.71,-9.54 -7.01,-19.89 -14.49,-28.68c-0.94,6.89 0.83,14.04 -2.9,19.91c-2.57,4.05 -6.11,8.11 -10.62,9.99c-3.62,-6.45 -5.66,-13.54 -9.08,-20.11c-3.84,-7.75 -10.05,-13.96 -15.09,-20.94c-2.69,-3.72 -4.36,-7.64 -6.65,-11.65c-3.11,-0.29 -3.81,4.37 -4.55,6.6c-1.49,9.84 0.55,20.2 -1.13,30.07c-1.05,6.48 -4.25,12.7 -7.73,18.2c-2.18,3.29 -4.62,6.78 -7.72,9.25c-2.02,1.54 -4.66,2.74 -7.2,1.81c-1.7,-1.13 -1.98,-3.37 -2.39,-5.21c-0.74,-4.6 -0.98,-9.29 -1.39,-13.93zm416.93,16.04c-2.94,-3.88 -7.28,-4.54 -10.8,-7.59c-2.48,-2.18 -4.76,-4.6 -7.15,-6.88c-4.65,-4.29 -7.61,-10.57 -10.71,-16.08c-1.91,-3.3 -3.55,-7.29 -6.3,-9.97c-4.31,-2.07 -9.66,-2.33 -14.35,-3.01c-5.67,-0.93 -9.3,3.08 -14.95,2.91c-7.39,-0.11 -14.91,0.31 -22.23,-0.67c-5.69,-0.64 -11.15,-0.35 -16.84,-0.36c-6.3,0.02 -12.41,-0.32 -18.69,0.47c-5.46,0.75 -10.82,0.46 -16.31,0.52c-3.18,0.01 -6.53,0.1 -9.68,-0.32c-10.14,-1.64 -21.48,-3.69 -31.67,-1.9c-12.12,1.91 -24.53,1.8 -36.72,3.15c-14.29,0.44 -28.66,-0.16 -42.95,0.3c-2.69,-0.02 -3.68,1.89 -4.55,4.09c-3.43,10.29 -3.79,21.21 -1.75,31.83c0.19,1.13 0.67,2.01 1.45,2.63c3.87,0.65 7.96,0.28 11.87,0.3c8.31,-0.19 16.72,0.33 25,-0.4c8.86,-0.96 18.04,-0.47 27,-0.57c7.96,0.04 16.08,-0.23 24,0.37c10.9,0.97 22.06,0.64 33,0.71c5.69,0.01 11.27,1.15 16.98,1.12c12,0.07 24.01,0.04 36.02,0.09c8.76,-0.09 17.48,0.47 26.17,1.54c7.8,0.35 15.81,0.51 23.53,-0.72c8.44,-1.16 16.81,-0.92 25.3,-0.92c5.18,0.01 10.2,0.36 15.33,-0.64zm-264.91,4.01c1.36,1.14 2.68,2.17 4.53,2.29c3.97,0.44 8.06,0.12 12.05,0.09c13.66,-0.17 27.33,0.11 41,0.09c3.28,-0.01 6.55,-0.16 9.8,-0.57c7.95,-1 16.2,-0.8 24.2,-0.74c7.11,0.18 13.96,0.02 21.01,0.85c6.65,0.59 13.32,0.31 19.96,1.17c12.31,0.63 24.7,0.2 37.03,0.26c5.62,-0.09 10.83,0.27 16.37,-0.58c-4.17,-2.91 -10.5,-2.07 -15.4,-2.72c-6.99,-0.96 -13.96,-0.61 -20.97,-0.97c-12.58,-1.18 -25.37,-0.5 -38,-0.64c-8.41,-0.15 -16.78,0.49 -24.9,-0.8c-13.21,-1.64 -25.79,-0.86 -39.1,-1.02c-9.64,0.08 -18.86,-0.82 -28.46,0.57c-6.33,0.93 -13.11,0.66 -19.12,2.72zm196.91,133.94c-0.01,-21.67 -0.02,-43.34 0,-65c-0.22,-8.16 -1.46,-16.32 -6.07,-23.24c-4.97,-7.43 -13.38,-11.81 -22.22,-12.38c-7.11,-0.36 -14.61,-0.54 -21.22,2.47c-6.47,2.76 -11.68,7.88 -14.53,14.31c-3.19,6.86 -3.56,15.38 -3.55,22.85c0.03,22.66 0.02,45.33 0,67.99c0.15,8.43 1,16.4 5.61,23.69c4.94,7.79 13.49,12.36 22.63,12.95c6.63,0.31 13.77,0.5 20.04,-1.94c7.32,-2.63 13.13,-8.54 16.06,-15.7c3.41,-8.14 3.37,-17.35 3.25,-26zm-365.51,-99.29c-4.01,25 -7.56,50.14 -11.43,75.17c-1.29,8.34 -2.23,16.78 -4.01,25.03c-1.31,-5.09 -1.87,-10.24 -2.79,-15.4c-4.03,-24.85 -8.02,-49.72 -12.07,-74.56c-0.55,-3.22 -0.81,-6.63 -1.83,-9.73c-1.13,-0.99 -3.24,-0.56 -4.66,-0.71c-8.61,0.16 -17.23,-0.22 -25.82,0.23c-0.02,47.17 -0.01,94.37 -0.01,141.54c6.33,0.37 12.69,0.28 19.02,0.05c0.25,-24.77 0.04,-49.56 0.11,-74.33c0.08,-8.02 -0.24,-16.1 0.31,-24.09c1.1,4.95 1.9,10.04 2.68,15.05c4.63,27.77 9.26,55.54 13.65,83.34c7.01,0.33 14.12,0.28 21.14,0.02c3.64,-25.8 7.68,-51.55 11.57,-77.31c1.27,-7.35 1.85,-14.95 3.74,-22.09c0.19,3.7 0.26,7.39 0.25,11.08c0,24.67 0,49.34 0,74c0.04,4.92 -0.28,9.61 0.38,14.51c6.81,-0.05 13.63,0.02 20.44,-0.05c0.08,-47.3 0.09,-94.6 0,-141.9c-10.22,0.06 -20.47,-0.23 -30.67,0.15zm213.35,141.79c7.16,-0.03 14.32,0.01 21.48,-0.02c0.16,-14.83 0.01,-29.66 0.07,-44.48c0.07,-5.58 -0.31,-11.1 0.38,-16.51c8.29,0.02 16.59,0.03 24.89,0c0.7,5.04 0.29,10.34 0.37,15.51c0.05,15.16 -0.09,30.32 0.07,45.47c7.36,0.03 14.73,0.04 22.1,-0.01c0.15,-47.18 -0.05,-94.38 0.1,-141.56c-7.14,-0.62 -15.14,-0.55 -22.28,-0.03c-0.03,20.17 0.13,40.35 -0.08,60.53c-8.42,0.27 -17.04,0.26 -25.47,-0.01c-0.25,-20.28 0.07,-40.57 -0.16,-60.85c-7.11,0.06 -14.24,-0.14 -21.34,0.06c-0.8,3.66 -0.44,7.67 -0.5,11.4c0.02,38.33 0,76.67 0.01,115c0.03,5.2 -0.24,10.32 0.36,15.5zm187.96,-141.81c-7.29,-0.22 -14.62,-0.32 -21.9,0.07c-0.01,36.09 -0.01,72.19 0,108.28c-0.03,6.07 0.71,12 3.11,17.61c2.73,6.49 7.64,11.93 14.23,14.61c8.34,3.39 17.99,3.68 26.69,1.62c6.83,-1.72 13.01,-5.84 16.71,-11.89c4.3,-6.89 5.45,-14.96 5.47,-22.95c-0.02,-35.82 0.03,-71.65 -0.02,-107.47c-6.9,0.04 -13.85,-0.24 -20.75,0.11c-0.29,3.42 -0.09,6.89 -0.12,10.32c0.01,33.01 -0.01,66.01 0.01,99.02c-0.03,4.22 -0.7,8.61 -4.05,11.53c-2.91,2.57 -6.77,2.45 -10.41,2.14c-4.65,-0.42 -7.95,-4.7 -8.51,-9.13c-0.66,-5.12 -0.25,-10.4 -0.34,-15.56c-0.08,-32.76 0.15,-65.55 -0.12,-98.31zm77.26,99.68c-6.93,-0.35 -13.92,-0.31 -20.85,-0.01c-0.31,10.37 -0.18,21.51 5.54,30.59c4.86,7.98 13.77,12.16 22.88,12.73c7.11,0.29 13.79,0.37 20.45,-2.51c8.82,-3.7 14.45,-12 16.32,-21.2c2.26,-11.61 1.33,-23.71 -4.56,-34.15c-7.61,-14.27 -24.35,-24.26 -33.5,-37.44c-4.26,-6.2 -5.04,-13.58 -3.92,-20.87c0.72,-3.61 3.11,-6.85 6.71,-7.97c4.53,-1.06 9.75,-0.76 12.76,3.27c3.21,4.11 2.42,10.86 2.49,15.81c6.98,0.25 13.96,0.15 20.94,0.08c0.24,-9.93 -0.51,-19.61 -6.33,-28.02c-4.67,-6.71 -12.23,-10.45 -20.26,-11.22c-8.9,-0.62 -17.57,-0.55 -25.37,4.33c-7.24,4.7 -11.14,12.3 -12.59,20.64c-1.59,9.68 -1.18,20.42 3.1,29.4c2.68,6.01 6.48,11.22 11.12,15.85c7.82,8.61 17.53,15.52 24.03,24.98c4.16,6.07 5.21,13.53 3.92,20.68c-0.89,3.91 -3.59,7.24 -7.61,8.14c-4.58,0.73 -9.63,0.48 -12.64,-3.57c-3.91,-5.03 -2.2,-13.48 -2.63,-19.54zm58.81,41.92c12.91,0.47 25.87,0.07 38.8,0.2c7.07,-0.06 14.15,0.17 21.21,-0.14c0.06,-6.6 0.49,-13.34 -0.3,-19.9c-12.63,-0.12 -25.29,0.25 -37.92,-0.17c-0.42,-7.75 -0.1,-15.53 -0.19,-23.28c0.11,-6.18 -0.38,-12.42 0.43,-18.47c9.95,0.01 19.9,0.02 29.85,0.02c0.66,-6.6 0.15,-13.35 0.28,-19.99c-10.12,-0.22 -20.27,0.27 -30.38,-0.24c-0.38,-7.09 -0.11,-14.22 -0.18,-21.32c0.06,-6.15 -0.25,-12.11 0.28,-18.21c12.74,-0.49 25.51,0.06 38.26,-0.27c-0.02,-6.64 -0.01,-13.28 -0.02,-19.92c-19.94,-0.08 -39.98,-0.14 -59.92,0.02c-0.39,3.43 -0.18,6.94 -0.21,10.38c0.02,43.77 0,87.53 0.01,131.29zm-495.77,0.09c6.58,0.23 13.15,0.03 19.72,0.14c2.14,-8.45 2.59,-17.31 4.36,-25.86c9.08,-0.09 18.17,0.04 27.25,-0.08c2.05,8.43 2.7,17.19 4.09,25.75c7.32,0.33 14.67,0.1 22,0.15c-0.16,-2.48 -0.37,-4.95 -0.79,-7.4c-6.42,-39.54 -12.69,-79.05 -19.07,-118.58c-0.89,-5.32 -1.43,-10.66 -2.73,-15.9c-9.44,-0.13 -18.89,-0.02 -28.34,-0.08c-1.2,0.13 -3.22,-0.19 -3.98,0.97c-6.91,42.88 -13.83,86.86 -20.82,129.52c-0.62,3.78 -1.17,7.58 -1.69,11.37zm88.69,-141.67c-0.5,5.77 -0.26,11.51 -0.29,17.29c-0.01,37.33 0,74.67 0,112c-0.06,4.11 -0.05,8.22 0.25,12.33c11.63,0.38 23.29,0.05 34.92,0.17c9.09,-0.06 19,-2.11 25.26,-9.25c6.5,-7.17 7.86,-16.93 8.08,-26.24c-0.01,-24 0.01,-48.02 -0.01,-72.01c-0.33,-9.47 -2.06,-19.32 -9.12,-26.21c-6.5,-6.64 -16.31,-8.14 -25.19,-8.25c-11.3,0.1 -22.61,-0.21 -33.9,0.17z" id="p0"/>
  <path d="m348.06,234.48c0.57,1.45 1.3,2.95 1.25,4.53c-0.38,9.14 -3.08,17.01 -5.49,25.65c-2.08,7.18 -1.58,13.96 -1.63,21.34c-0.02,7.66 1.23,15.27 5.21,21.93c3.99,-1.16 6.88,-5.01 9.19,-8.27c5.27,-7.82 3.26,-17.59 10.57,-23.63c1.95,4.24 1.57,8.69 1.41,13.26c-0.33,7.49 -3.94,14.67 -2.67,21.89c1.26,7.58 3.5,14.85 2.39,22.75c-0.3,1.8 -1.51,2.59 -3.28,2.56c-6.18,0.44 -12.65,-0.5 -18.87,0.22c-3.85,0.52 -7.67,1.8 -11.44,2.78c-4.36,1.15 -8.57,2.26 -12.45,4.66c-6.35,3.94 -12.69,7.78 -17.74,13.34c-3.16,3.53 -6.24,7.18 -8.99,11.03c-7.32,10.99 -9.53,22.62 -14.34,34.63c-1.87,6.01 -4.13,11.55 -7.71,16.75c-0.06,-4.87 0.26,-9.5 -1.14,-14.2c-1.05,-3.5 -2.45,-6.9 -3.66,-10.36c-1.49,-4.72 -5.51,-8.63 -9.19,-11.79c-5.4,-4.4 -12.43,-3.19 -19.19,-6.35c3.69,-4.07 7.97,-7.34 12.37,-10.58c9.75,-6.92 20.63,-10.74 32.16,-13.54c8.9,-1.94 17.51,-2.08 25.75,-6.54c-1.17,-0.72 -2.35,-0.98 -3.54,-0.8c-9.91,1.37 -19.71,4.17 -29.7,4.94c-0.1,-6.85 1.71,-12.29 5.64,-17.84c5.85,-8 13.5,-15.58 18.74,-24.3c5.86,-9.54 7.21,-22.36 13.07,-31.9c1.83,-3.08 4.69,-4.4 7.94,-5.52c-0.5,4.3 0.03,9.14 -4.01,11.79c-3.88,6.54 -7.34,14.31 -7.34,22.05c-0.15,5.69 -0.14,11.37 0.23,17.06c1.47,-0.66 2.86,-1.12 3.78,-2.55c4.89,-7.05 6,-15.55 8.28,-23.56c4.67,-15.9 11.45,-31 15.97,-47.02c1.72,-5.72 3.07,-11 8.43,-14.41z" id="p1"/>
  <path d="m411.22,250.61c0.3,3.31 0.1,6.46 -0.46,9.73c-0.97,6.43 -1.42,12.56 -5.5,17.93c-3.49,4.45 -7.56,8.43 -11.16,12.8c-2.17,2.32 -3.41,4.95 -6.84,5.44c0.03,-4.72 0.68,-9.35 2.36,-13.78c2.63,-7.77 9.49,-13 13.83,-20.36c2.73,-3.73 4.1,-8.99 7.77,-11.76z" id="p2"/>
  <path d="m468.29,262.71c1.02,6.59 -2.49,10.78 -4.95,16.45c-3.83,8.04 -5.15,17.08 -9.01,25.02c-3.42,6.97 -10.81,11.61 -16.07,17.09c-4,4 -4.27,11.11 -7.71,15.2c-1.08,1.37 -2.93,1.07 -4.49,1.24c-9.95,0.16 -20,-0.61 -29.87,-1.8c2.04,-5.61 4.8,-11.44 8.77,-15.95c6.84,-7.1 14.76,-12.01 23.25,-16.86c8.8,-5.7 18.23,-11.72 25.19,-19.65c4.45,-5.06 7.07,-10.86 10.43,-16.59c1.04,-1.95 2.61,-3.05 4.46,-4.15z" id="p3"/>
  <path d="m725.31,266.68c0.89,7.81 -2.56,14.5 -2.63,22.06c0.41,6.02 2.12,12.13 0.67,18.4c-1.81,6.43 -7.03,12.31 -10,18.07c-0.93,1.76 -0.95,3.56 -1.18,5.49c4.95,-0.07 9.34,-1.99 14.18,-2.72c-1.22,5.72 -3.68,11.22 -6.32,16.41c-8.31,0.8 -15.72,-2.01 -24.01,-2.13c-13.51,-1.12 -26.59,0.34 -39.96,-1.61c-9.1,-0.79 -18.09,-1.74 -27.12,-3.15c-8.3,-1.39 -16.59,-1.13 -24.97,-1.09c-2.47,0.05 -4.32,-0.34 -6.57,-1.33c1.77,-3.62 4.3,-6.71 7.21,-9.48c3.74,-3.48 9.3,-5.3 13.97,-7.2c10.35,-3.94 19.59,-9.76 28.26,-16.6c6.29,-5.03 11.14,-11.38 17.32,-16.58c1,1.2 1.94,2.14 2.09,3.79c1.01,5.94 -0.17,11.85 -3.12,17.07c-2.7,5.32 -7.05,8.9 -9.09,14.56c3.22,-0.06 6.22,-0.01 9.14,-1.58c8.13,-4.15 12.77,-12.38 20.89,-17.22c1.46,3.93 1.91,7.44 0.36,11.44c-1.21,4.46 -5.23,8.95 -4.68,13.57c7.59,-2.81 14.13,-8.67 18.96,-15.05c4.13,-5.54 4.99,-11.53 7.03,-17.9c2.08,-6.54 5.89,-11.72 10,-17.1c2.99,-3.75 5.37,-7.55 9.57,-10.12z" id="p4"/>
  <path d="m762.07,287.07c1.13,2.67 1.66,4.87 0.98,7.76c-1.15,5.68 -2.92,12.77 -8.33,15.88c-5.08,3.01 -10.56,5.61 -16.27,7.2c0.65,-2.12 1.17,-4.13 2.66,-5.83c3.48,-4.13 7.81,-7.49 11.26,-11.67c3.66,-4.24 5.67,-9.38 9.7,-13.34z" id="p5"/>
  <path d="m531.04,288.21c3.6,3.34 5.03,7.4 7.3,11.62c1.56,3.17 3.66,6.66 4.13,10.18c0.24,4.76 -2.57,8.46 -5.52,11.86c-3.39,-3.37 -5.14,-7.49 -7.33,-11.63c-1.85,-3.68 -4.16,-8.07 -4.12,-12.26c0.12,-4.17 2.5,-7.18 5.54,-9.77z" id="p6"/>
  <path d="m509.16,300.55c1.33,6.29 0,12.59 1.7,18.92c1.94,7.09 5.99,12.78 6.68,20.48c0.88,8.77 -3.48,16.45 -3.02,24.92c0.1,1.74 1.03,3.45 1.71,5.03c3.64,-3.45 6.05,-7.71 9.16,-11.57c0.82,-1.1 1.95,-1.66 3.13,-2.29c2.57,5.38 4.34,10.95 4.1,16.98c0.13,10.06 -4.74,20.17 -4.11,30.05c0.14,3.33 2.34,4.8 4.6,6.82c1.22,-1.53 2.37,-3.04 3.02,-4.9c3.41,-9.37 5.78,-19.12 7.11,-28.99c0.6,-4.68 0.06,-9.2 -0.46,-13.85c-0.96,-7.88 1.85,-15.8 6.73,-21.95c1.31,3.18 2.41,6.43 3.43,9.72c2.28,7.16 5.7,14.39 7.2,21.73c1.19,7.28 0.24,14.85 -1.7,21.92c-1.43,5.81 -3.73,11.53 -4.64,17.45c-0.42,2.41 0.48,4.37 1.23,6.59c3.66,-4.15 4.47,-8.95 6.87,-13.78c3.05,-6.56 7.43,-11.58 11.24,-17.66c1.59,-2.59 3.42,-4.89 5.52,-7.08c2.07,7.77 4.19,15.36 7.59,22.68c0.69,1.18 1.22,2.78 2.76,3c2.26,-0.57 4.43,-1.55 6.62,-2.36c2.77,3.9 7.17,8.46 7.01,13.52c0.07,9.6 0.61,18.8 -2.89,27.89c-1.02,2.53 -2.37,4.8 -5.2,5.5c-9.34,2.09 -20.05,0.22 -29.55,0.39c-13.33,0.06 -26.67,-0.15 -40,0.1c-8.34,0.65 -16.66,0.31 -24.97,1.29c-5.34,0.54 -10.69,0.25 -16.03,0.82c-6.68,0.75 -13.3,0.61 -20,0.63c-13.01,-0.01 -26.03,0.05 -39.04,0.03c-2.19,0.04 -3.58,-0.39 -5.45,-1.5c1.33,-3.5 2.74,-6.96 4.15,-10.43c2.85,-7.58 3.23,-15.03 4.26,-22.9c0.31,-3.7 4.65,-4.08 4.98,-7.88c1.02,-7.86 -0.15,-15.91 1.33,-23.8c1.48,-8.52 4.33,-17.83 10.93,-23.81c0.63,0.2 1.28,0.33 1.96,0.4c0.56,3.64 1.07,7.33 2.03,10.89c1.91,6.57 5.96,11.36 8.62,17.6c1.24,2.91 2.45,5.84 3.65,8.76c2.17,-0.25 4.09,-0.07 5.68,-1.85c3.04,-2.83 2.56,-7.33 2.55,-11.09c-0.13,-7.51 -3.89,-13.58 -4.29,-20.99c-0.2,-3.8 -0.29,-7.82 1.15,-11.41c1.65,-4.14 3.95,-8.01 5.78,-12.08c1.29,-2.9 2.79,-5.56 4.58,-8.18c2.86,4.2 5.3,9.42 9.06,12.79c1.02,0.97 2.23,1.25 3.51,1.73c4.33,-8.03 5.68,-16.68 6.62,-25.63c0.86,-9.07 5.46,-17.56 13.1,-22.65z" id="p7"/>
  <path d="m387.09,311.57c0.83,8.07 0.22,16.25 0.76,24.36c-5.08,0.72 -9.89,0.72 -14.96,-0.05c2.12,-6.25 7.14,-9.97 9.7,-16.04c1.47,-3.06 1.68,-6.06 4.5,-8.27z" id="p8"/>
  <path d="m614.03,341.2c9.05,1 18.08,0.99 27.01,1.11c6.16,0.07 11.85,1.65 17.96,2.26c16.11,2.19 32.36,2.41 48.5,4.54c5.09,0.76 11.03,0.53 15.71,2.7c-1.12,2.94 -0.35,8.56 -4.19,9.34c-7.09,2.8 -15.12,5.17 -21.67,9.13c-4.32,2.48 -7.68,5.58 -12.72,6.63c-0.73,-5.41 -1.05,-10.57 -3.85,-15.4c-2.66,4.05 -0.03,10.86 -0.22,15.54c0.38,3.88 -3.07,5.78 -5.77,7.74c-1.98,-5.57 -3.32,-11.32 -9.19,-14.04c0.39,5.37 3.37,9.23 4.88,14.27c-5.25,-2.83 -9.03,-6.47 -15.48,-5.15c2.83,3.31 6.33,5.65 9.72,8.33c-2.57,1.61 -5.17,3.21 -7.63,5c2.01,0.64 4.04,1.26 6.05,1.89c-3.15,5.2 -7.54,9.04 -11.39,13.67c-2.56,3.08 -5.32,6.02 -7.76,9.21c-2.76,3.56 -3.93,7.86 -6.84,11.34c-2.11,-2.24 -3.96,-4.49 -4.64,-7.58c-1.28,-5.34 -2.34,-11.17 -1.72,-16.66c0.86,-6.84 0.98,-13.16 3.64,-19.63c2.94,-7.91 8.43,-13.9 14.73,-19.3c4.19,-3.55 8.99,-5.7 13.66,-8.44c1.89,-1.05 3.14,-2.65 4.37,-4.37c-4.98,0.64 -9.37,2.6 -13.49,5.41c-5.5,3.76 -11.47,8.05 -15.45,13.45c-3.64,4.86 -6.56,10.38 -9.75,15.61c-4.29,-1.07 -7.81,-3.4 -11.39,-5.9c-3.67,-2.54 -6.39,-5.88 -10.46,-7.88c-0.11,5.05 -0.65,10.39 0.23,15.37c2.2,6.29 10.39,9.16 13.84,14.81c4.13,6.6 6.46,13.87 9.19,20.89c1.34,3.58 3.76,6.62 5.17,10.15c-0.25,3.15 -1.81,6.27 -2.49,9.37c-0.8,2.72 -1.07,6.01 -2.59,8.42c-4.64,3.11 -10,2.9 -15.05,0.93c-2.82,-1.14 -7.37,-2.36 -8.9,-5.17c-1.31,-4.6 -0.22,-10.2 0.57,-14.85c1.09,-5.54 1.45,-11.28 1.01,-16.92c-0.35,-4.66 -3.2,-9.22 -5.36,-13.28c-1.61,-2.76 -3.29,-6.18 -5.88,-8.13c-2.48,-0.08 -5.05,0.88 -7.43,1.5c-6.06,-9.86 -4.97,-20.65 -10.29,-31.11c-3.07,5.22 -4.06,11.21 -7.26,16.41c-2.09,3.27 -3.84,7.56 -7.97,8.57c0.19,-6.9 1.9,-12.91 0.55,-19.82c-1.34,-7.05 -5.91,-13.61 -6.67,-20.64c-0.41,-2.45 1.74,-3.66 3.49,-4.81c6.53,-3.8 15.45,-4.32 22.85,-5.4c10.3,-1.49 20.13,-0.42 30.37,0.89z" id="p9"/>
  <path d="m353.99,342.19c6.55,-0.05 12.76,-0.16 19.07,1.89c11.5,3.57 24.16,9.87 31.28,19.93c-0.86,1.99 -1.76,3.96 -2.68,5.92c-2.84,-2 -5.3,-4.41 -7.97,-6.62c-7.3,-5.61 -16.04,-9.09 -25.19,-10.17c-8.15,-1.43 -15.69,0.39 -23.41,2.85c-1.47,0.35 -3.29,1.16 -4.79,0.78c-3.01,-2.64 -5.01,-6.7 -6.21,-10.48c6.09,-2.91 13.19,-4 19.9,-4.1z" id="p10"/>
  <path d="m427.01,341.51c7.5,0.15 15.67,1.48 22.32,5.13c3.37,2.11 3.16,5.31 3.18,8.83c-2.49,0.01 -4.64,-0.45 -6.71,1.29c-4.8,3.64 -9.71,8.48 -11.88,14.21c-2.46,6.38 -3.87,13.24 -4.33,20.06c-0.27,4.71 -1.01,9.3 -2.12,13.89c-1.52,-6.94 -2.94,-13.68 -5.8,-20.23c-4.47,-13.47 -13.87,-23.84 -24.42,-32.95c-3.65,-3.3 -8.01,-5.58 -11.63,-8.93c7.65,-1.01 15.2,0.14 22.87,-0.75c6.18,-0.75 12.3,-0.62 18.52,-0.55z" id="p11"/>
  <path d="m540.7,345.35c0.08,7.91 -2.01,15.71 -2.24,23.63c-0.37,6 0.55,12.74 -1.06,18.49c-0.39,1.66 -1.48,2.72 -2.62,3.91c-0.48,-8.78 2.47,-17.87 -0.1,-27.33c-1.7,-5.13 -4.7,-9.92 -7.79,-14.33c-2.22,1.91 -4.56,3.64 -6.85,5.44c-0.16,-3.12 -0.42,-7.74 1.81,-10.25c5.48,-2.45 13.16,-0.9 18.85,0.44z" id="p12"/>
  <path d="m463.81,346.76c-0.51,7.09 -2.8,12.6 -2.18,19.35c0.64,6.71 3.05,13.1 3.6,19.89c0.25,1.77 -0.41,3.15 -1.11,4.71c-5.67,-6.19 -5.41,-15.46 -6.41,-23.31c-0.3,-5.82 -2.09,-13.13 0.11,-18.61c1.72,-1.67 3.75,-1.7 5.99,-2.03z" id="p13"/>
  <path d="m326.27,350.27c1.52,-0.71 2.72,0.88 3.58,1.89c1.86,2.55 4.03,5.47 4.71,8.59c-1.3,2.1 -3.78,3.56 -5.55,5.26c-13.92,12.45 -20.11,31.68 -17.44,50.02c0.75,7.97 4.2,14.55 7.22,21.78c-6.1,-4.29 -8.03,-10.29 -12.42,-16.17c-3.8,-5.12 -3.93,-11.33 -7.34,-16.63c-2.22,-4.02 -5.39,-9.84 -3.72,-14.49c2.65,-9.56 7.18,-18.97 13.69,-26.52c4.81,-5.15 10.62,-11.1 17.27,-13.73z" id="p14"/>
  <path d="m747.01,352.48c-0.85,0.79 -1.56,1.48 -2.73,1.74c-4.72,1.42 -9.42,2.39 -14.21,3.4c-1.13,-2.35 -1.8,-4.52 -1.78,-7.15c6.38,-0.59 12.55,0.47 18.72,2.01z" id="p15"/>
  <path d="m366.01,358.16c11.63,-0.26 21.89,4.89 30.5,12.34c2.99,2.78 5.85,5.23 7.32,9.17c-9.65,6.37 -21.82,6.97 -32.93,5.17c-9.47,-1.56 -17.32,-5.77 -25.67,-10.22c-2.75,-1.59 -5.84,-3.39 -7.87,-5.88c-0.07,-1.61 1.13,-2.15 2.22,-3.07c7.77,-5.36 16.98,-8.01 26.43,-7.51z" id="p16"/>
  <path d="m771,358.7c11.77,-0.04 22.57,-1.08 34.17,2.06c3.83,1.24 7.41,3.11 11.24,4.36c3.23,1.05 6.33,2.31 9.16,4.21c6.58,4.35 13.3,7.66 19.54,12.48c4.63,3.51 8.26,7.59 12.42,11.66c7.68,7.57 14.14,15.95 20.38,24.72c5,7.25 8.04,15.15 10.64,23.5c1.76,5.74 4.16,10.89 5.32,16.8c1.31,6.9 2.77,13.44 2.66,20.51c-0.03,10.68 0.2,21.37 -0.06,32.04c-0.51,6.65 -2.11,13.24 -3.23,19.82c-3.14,12.78 -8.13,25.18 -14.67,36.61c-2.78,4.51 -5.74,8.91 -8.61,13.37c-3.88,6.06 -9,10.03 -13.92,15.19c-4.91,5.14 -10.18,9.9 -15.73,14.32c-7.25,5.5 -15.23,8.05 -23.33,11.76c-5.61,2.59 -11.87,3.69 -17.95,5.25c-6.45,1.69 -12.45,1.05 -19.03,1.12c-5.3,-0.08 -10.73,0.29 -16,-0.33c-10.22,-1.54 -19.82,-5.21 -28.87,-10.13c-8.5,-4.2 -16.26,-9.51 -23.21,-15.95c-4.38,-4.15 -8.81,-7.68 -12.46,-12.52c-5.79,-7.59 -11.47,-14.69 -15.69,-23.32c-5.17,-10.33 -10.35,-21.26 -12.76,-32.61c-1.15,-4.86 -2.42,-9.61 -3.13,-14.58c-1.49,-11.11 -2.84,-21.83 -1.88,-33.08c0.93,-11.02 2.26,-22.31 5.02,-33.03c1.92,-7.42 5.15,-14.66 8.1,-21.73c3.47,-7.75 7.32,-15.79 12.5,-22.53c3.98,-5.26 7.1,-10.56 11.88,-15.16c2.19,-2.08 4.04,-4.27 5.54,-6.9c-3.29,0.68 -5.84,1.76 -8.12,4.3c-4.63,5.05 -9.17,10.33 -12.83,16.15c-3.38,5.47 -7.12,10.29 -9.77,16.2c-7.51,15.97 -13,32.56 -15,50.16c-1.31,7.84 -1.14,15.66 -1.12,23.58c-0.23,16.11 3.08,32.44 8.2,47.67c9.43,29.6 29.02,55.8 55.18,72.67c6.28,4.14 13.31,6.41 19.86,9.99c-3.08,1.96 -6.36,0.84 -9.62,0.03c-5.24,-1.59 -10.57,-3.22 -15.52,-5.59c-13.5,-6.96 -23.76,-17.09 -33.57,-28.49c-8.78,-11.68 -16.32,-24.14 -21.27,-37.94c-5.19,-13.28 -8.53,-26.93 -10.08,-41.1c-1.68,-9.13 -0.93,-18.02 -1.12,-27.24c-0.08,-4.53 0.13,-9 0.94,-13.46c1.44,-11.75 3.24,-24.28 7.66,-35.33c2.03,-5.75 4.52,-11.08 5.93,-16.97c-0.72,0.17 -1.44,0.33 -2.16,0.49c-3.52,5.79 -5.67,12.13 -7.43,18.64c-2.79,9.36 -4.89,18.93 -6.43,28.57c-1.39,11.88 -2.94,23.11 -1.84,35.1c0.81,7.71 1.11,15.69 2.65,23.28c2.11,10.27 4.32,20.43 7.96,30.29c2.99,8.61 7.27,16.32 11.67,24.26c2.91,5.23 6.26,10.18 10.2,14.69c4.04,4.6 7.79,9.71 12.31,13.71c4.37,3.93 9.02,7.43 13.17,11.63c-3.06,-1.07 -6.02,-2.24 -8.67,-4.15c-7.5,-5.44 -14.64,-11.22 -20.51,-18.46c-10.39,-11.71 -18.33,-25.24 -24.34,-39.66c-5.16,-13.22 -8.6,-27.02 -10.67,-41.06c-0.91,-6.84 -1.2,-13.71 -1.77,-20.58c-0.53,-5.91 0.51,-12.03 0.83,-18c1.3,-13.29 3.69,-26.64 7.84,-39.35c0.67,-2.18 1.02,-4.42 1.26,-6.69c-3.43,1.44 -3.68,4.86 -4.83,8c-3.55,12.73 -6.37,25.86 -7.39,39.06c-0.27,9.97 -0.24,20.04 -0.07,30.01c1.49,18.86 5.26,37.28 12.79,54.7c4.38,9.62 8.93,19.04 15.44,27.43c5.57,8.32 12.46,15.5 19.85,22.19c2.32,1.95 4.5,4.01 6.44,6.34c-3.24,-1.25 -6.56,-3.29 -10.04,-3.18c-6.73,0.09 -13.27,-1.26 -20.01,-0.89c3.66,-0.46 7.32,-0.87 11.02,-0.92c2.7,-0.16 6.12,0.07 8.54,-1.25c-7.01,-6.13 -14.21,-12.18 -20.33,-19.64c-4.33,-5.9 -8.9,-11.25 -12.03,-17.93c-4.71,-8.67 -8.44,-17.77 -11.82,-27.03c-3.48,-11.38 -5.91,-23.05 -7.05,-34.91c-1.49,-9.33 -0.75,-18.26 -0.93,-27.93c-0.28,-7.8 1.7,-15.17 2.15,-22.92c0.31,-4.7 1.53,-9.17 2.96,-13.62c1.29,-3.91 1.9,-8.42 3.95,-11.97c8.29,-12.89 13.74,-27.94 25.45,-38.54c11.54,-12.11 25.62,-22.63 41.21,-28.89c6.61,-2.81 13.51,-4.8 20.1,-7.66c13.58,-5.57 28.28,-5.89 42.74,-5.7zm108.52,134.3c0.41,-13.77 -2.28,-27.72 -6.63,-40.74c-4.73,-12.86 -10.68,-25.1 -19.41,-35.75c-3.14,-3.75 -6.35,-7.72 -9.97,-11.02c-9.01,-7.91 -18.56,-14.93 -29.79,-19.37c-10.16,-3.85 -20.8,-6.25 -31.72,-5.76c-10.39,-0.51 -20.43,1.77 -30.15,5.25c-10.68,3.95 -20.56,10.74 -29.25,17.99c-12.61,11.36 -21.97,26.03 -28.61,41.56c-3.55,8.05 -5.46,17.1 -7.31,25.68c-1.68,7.78 -1.23,15.28 -1.28,23.16c0.06,7.02 -0.34,13.58 0.92,20.52c1.4,7.52 3.07,15.11 5.61,22.34c4.34,12.85 11.32,24.84 19.69,35.47c5.95,6.57 12.35,13.5 19.78,18.36c5.04,3.37 10.07,7.13 15.6,9.47c14.95,6.38 31.22,9.11 47.37,6.59c8.47,-1.43 16.99,-3.78 24.74,-7.54c8.68,-4.41 16.38,-10.03 23.81,-16.29c4.42,-3.81 7.93,-8.89 11.71,-13.35c7.81,-9.53 12.92,-20.42 17.35,-31.82c4.09,-10.26 5.82,-20.94 7.23,-31.83c0.46,-4.23 0.28,-8.66 0.31,-12.92z" id="p17"/>
  <path d="m407.41,367.22c2.26,0.98 3.23,2.85 4.55,4.8c2.4,3.82 4.57,7.7 6.22,11.91c3.15,8.19 5.76,16.2 6.23,25.04c0.29,6.56 0.09,13.28 -1.06,19.76c-0.93,5.17 -2.89,9.88 -4.94,14.7c-1.07,2.4 -2.18,4.97 -3.8,7.04l-1.14,-0.02c-1.62,-2.18 -3,-4.81 -3.43,-7.51c0.29,-2.22 1.54,-4.4 2.45,-6.42c2.3,-4.73 3.94,-9.76 4.8,-14.95c0.73,-5.75 0.66,-11.67 0.21,-17.44c-1.29,-10.06 -5.23,-19.35 -10.93,-27.69c-2.37,-3.24 -0.75,-6.11 0.84,-9.22z" id="p18"/>
  <path d="m335.9,375.07c4.32,2.82 8.3,5.94 13.13,7.9c7.88,3.3 16.38,6.54 24.93,7.36c6.75,0.49 14.06,0.52 20.59,-1.45c4.38,-1.23 8.28,-3.41 12.34,-5.47c1.46,2.56 2.81,5.16 3.77,7.96c1.47,4.26 3.18,8.04 2.8,12.67c-4.07,0.78 -8.94,1.55 -12.27,4.16c-3,2.27 -5.68,5.01 -8.18,7.82c-4.43,4.89 -6.54,11.81 -8.2,18.08c-2.1,8.06 -1.03,15.37 -1.12,23.58c-4.27,2.04 -8.67,2.17 -13.31,2.11c0,-6.24 0.5,-12.04 -0.83,-18.11c-1.81,-8.62 -5.55,-17.14 -11.56,-23.67c-8.23,-9.37 -19.64,-14.52 -31.82,-16.46c-2.02,-0.51 -5.07,-0.57 -6.65,-1.99c0.58,-9.07 4.71,-18.5 10.94,-25.14c1.72,-2.14 3.61,-0.24 5.44,0.65zm35.6,19.6c-4.67,1.3 -8.59,5.57 -9.16,10.43c-0.45,4.62 -0.3,9.13 2.71,12.91c4.27,5.44 12.31,7.57 18.05,3.04c6.26,-4.92 7.01,-13.68 3.03,-20.28c-2.82,-5.12 -9.07,-7.35 -14.63,-6.1z" id="p19"/>
  <path d="m782,380.36c10.92,-0.49 21.56,1.91 31.72,5.76c11.23,4.44 20.78,11.46 29.79,19.37c3.62,3.3 6.83,7.27 9.97,11.02c8.73,10.65 14.68,22.89 19.41,35.75c4.35,13.02 7.04,26.97 6.63,40.74c-0.03,4.26 0.15,8.69 -0.31,12.92c-1.41,10.89 -3.14,21.57 -7.23,31.83c-4.43,11.4 -9.54,22.29 -17.35,31.82c-3.78,4.46 -7.29,9.54 -11.71,13.35c-7.43,6.26 -15.13,11.88 -23.81,16.29c-7.75,3.76 -16.27,6.11 -24.74,7.54c-16.15,2.52 -32.42,-0.21 -47.37,-6.59c-5.53,-2.34 -10.56,-6.1 -15.6,-9.47c-7.43,-4.86 -13.83,-11.79 -19.78,-18.36c-8.37,-10.63 -15.35,-22.62 -19.69,-35.47c-2.54,-7.23 -4.21,-14.82 -5.61,-22.34c-1.26,-6.94 -0.86,-13.5 -0.92,-20.52c0.05,-7.88 -0.4,-15.38 1.28,-23.16c1.85,-8.58 3.76,-17.63 7.31,-25.68c6.64,-15.53 16,-30.2 28.61,-41.56c8.69,-7.25 18.57,-14.04 29.25,-17.99c9.72,-3.48 19.76,-5.76 30.15,-5.25zm-15.53,74.72c-2.21,2.27 -4.62,4.31 -6.97,6.42c-4.66,4.31 -6.94,9.6 -10.69,14.83c-1.23,-2.34 -2.32,-4.73 -3.14,-7.24c-2.7,-8.43 -7.23,-16.6 -11.67,-24.24c-1.86,-3.09 -4.05,-6.62 -7.05,-8.72c-2.36,-1.68 -5.4,-2.18 -8.12,-1.09c-4.53,1.84 -8.96,4.96 -11.2,9.42c-4.1,7.79 -6.81,16.5 -8.78,25.05c-0.71,3.11 -0.4,6.16 0.6,9.16c1.23,3.76 2.77,8.36 5.77,11.08c2.65,2.72 7.29,1.93 10.73,1.78c7.88,-1.05 16.82,-2.75 23.52,-7.24c2.56,-1.7 5.16,-3.25 7.96,-4.51c-0.06,4.79 -1.22,9.42 -1.16,14.22c-0.14,5.31 1.37,10.25 1.69,15.54c-4.35,-1.11 -7.59,-3.89 -11.69,-5.53c-6.12,-2.6 -13.13,-3.76 -19.63,-5.14c-3.4,-0.49 -8.06,-1.12 -11.12,0.77c-3.96,2.42 -5.13,8.32 -6.31,12.48c-1.41,4.49 0.43,8.19 1.43,12.56c1.75,7.01 4.59,13.59 7.8,20.04c1.29,2.58 2.88,4.85 5.47,6.28c3.58,2.11 8.36,4.31 12.58,3.27c3.4,-1.19 6.11,-4.73 8.01,-7.66c4.45,-7.32 8.85,-15.18 11.58,-23.32c1.31,-3.68 1.24,-7.1 3.75,-10.18c2.07,2.95 3.92,6.11 6.18,8.9c3.42,4.08 7.9,7.36 11.76,11.11c-8.77,4.55 -17.26,8.11 -24.76,14.89c-2.9,2.78 -6.07,5.27 -8.96,8.05c-2.62,2.51 -3.57,6.48 -2.84,9.97c1.08,5.89 3.81,12.3 9.36,15.26c6.68,3.88 13.74,7.57 21.16,9.77c4.15,1.41 8.15,-0.8 11.72,-2.73c2.8,-1.67 6.29,-4.18 6.8,-7.66c1.17,-11.2 -1.08,-21.89 -4.6,-32.47c-1.54,-4.64 -4.21,-8.78 -5.85,-13.36c0.56,-1.51 2.5,-0.58 3.64,-0.48c7.1,1.89 14.88,1.76 21.53,-1.58c3.69,-2.05 6.99,-4.89 10.08,-7.73c3.89,-3.59 6.14,-8.37 10.04,-11.97c2.47,5.63 3.39,11.68 5.72,17.36c2.42,6.34 6.17,11.33 9.81,17c1.62,2.3 3.51,5.4 6.14,6.59c3.33,1.2 7.07,0.22 10.19,-1.16c3.06,-1.41 6.23,-2.73 7.86,-5.87c4.68,-9.06 8.05,-18.62 10.34,-28.55c0.87,-3.6 -0.64,-7.83 -1.63,-11.3c-1.13,-3.67 -3.14,-7.12 -6.98,-8.42c-4.14,-0.88 -8.95,0.12 -13.06,0.89c-5.07,0.93 -10.06,2.19 -14.82,4.2c-4.36,1.7 -8,4.46 -12.57,5.7c0.35,-5.27 1.77,-10.22 1.66,-15.52c0.06,-4.79 -1.12,-9.42 -1.16,-14.21c5.39,2.36 9.72,6.18 15.39,8.01c7.64,2.61 16.5,4.74 24.58,3.51c2.93,-0.87 4.86,-4.8 6.18,-7.34c1.86,-4.12 3.44,-8.19 2.7,-12.8c-1.41,-7.63 -3.77,-14.9 -6.73,-22.06c-1.58,-3.72 -2.78,-8.03 -6.29,-10.43c-3.33,-2.31 -7.95,-4.73 -12.12,-4.12c-3.17,0.49 -5.14,3.36 -6.86,5.79c-4.95,7.5 -9.79,14.41 -12.83,22.98c-1.85,4.7 -2.15,9.09 -5.37,13.01c-2.57,-3.68 -4.47,-7.85 -7.29,-11.33c-2.99,-3.72 -7,-6.13 -9.79,-10.04c10.19,-3.89 20.73,-8.34 28.38,-16.42c2.29,-2.44 5.41,-4.9 6.73,-8.01c1.34,-6.27 -0.3,-13.15 -3.26,-18.74c-1.51,-3 -4.74,-4.52 -7.5,-6.16c-5.8,-3.2 -11.85,-6.78 -18.23,-8.69c-4.53,-1.37 -8.8,0.39 -12.58,2.84c-2.57,1.8 -5.06,3.91 -5.19,7.3c-0.32,5.11 -0.47,10.02 1.03,14.98c0.34,-4.98 -0.42,-10.05 0.22,-14.98c1.26,-6.04 8.82,-8.56 14.22,-8.55c8.15,1.65 16.13,5.59 22.7,10.68c4.18,3.05 6.5,7.87 7.59,12.81c0.46,3.3 0.62,6.93 -1.45,9.75c-3,4.13 -7.74,7.19 -11.6,10.5c-5.27,4.55 -11.69,8.09 -18.42,9.86c-2.21,0.68 -3.68,-0.59 -4.62,-2.47c-2.97,-5.95 -3.91,-12.64 -6.92,-18.62c0.23,3.49 0.56,6.92 1.66,10.26c1.35,4.44 3.79,8.12 4.48,12.78c-5.5,-0.55 -9.94,-2.23 -15.4,-1.68c-3.45,0.37 -6.81,1.04 -10.3,0.96c1.45,-4.77 4.54,-8.67 5.95,-13.45c3.34,-10.76 5.92,-22.11 4.51,-33.43c-0.99,-3.66 -5.28,-6.37 -8.45,-8.04c-4.04,-2.17 -8.37,-2.9 -12.75,-1.2c-7.79,2.93 -15.34,6.79 -22.03,11.78c-4.1,2.77 -5.57,8.5 -6.38,13.1c-0.33,3.85 -0.93,8.31 2,11.35c5.53,6.11 12.07,11.63 19.41,15.43c4.7,2.53 9.6,4.08 14.51,6.17zm28.68,-20.75c0.92,4.45 0.2,9.29 4.45,12.11c2.76,2.62 6.95,-0.93 9.51,-2.33c7.19,-5.34 14.37,-7.76 19.31,-14.71c2.04,-2.68 0.82,-5.84 -0.03,-8.71c-1.13,-3.2 -2.33,-6.89 -5.17,-8.97c-3.85,-2.96 -8.34,-5.17 -12.74,-7.17c-2.96,-1.25 -6.25,-2.68 -9.49,-2.85c-2.87,0.18 -5.94,1.19 -8.16,3.07c-1.81,3.89 -1.34,9.07 -1.12,13.27c0.29,5.7 2.43,10.77 3.44,16.29zm28.08,144.89c2.23,-1.51 5.52,-2.58 7.12,-4.81c1.88,-3.34 3.01,-8.52 2.63,-12.33c-0.32,-3.91 -4,-6.87 -6.64,-9.44c-6.29,-6.01 -13.09,-11.27 -20.92,-15.15c-3.22,-1.55 -6.93,-4.1 -10.28,-1.33c-2.27,2.53 -2.89,6.7 -4.1,9.84c-3.31,9.07 -4.07,18.3 -5.07,27.97c-0.11,3.09 -0.4,8.46 2.11,10.71c4.84,2.67 10.96,5.76 16.53,3.86c6.55,-1.97 12.9,-5.64 18.62,-9.32z" id="p20"/>
  <path d="m237.95,382.43c5.5,-0.18 12.03,-0.15 17.06,2.37c5.83,3.17 9.01,9.22 10.43,15.5c2.22,9.96 4.52,20.51 4.22,30.71c0.29,9.73 -1.13,19.23 -2.65,28.82c-3.27,-1.65 -6.3,-3.3 -8.44,-6.4c-3.17,-4.64 -4.32,-11 -5.87,-16.35c-1.86,-6.24 -2.51,-12.31 -5.54,-17.76c-3.11,2.69 -6,5.62 -9.16,8.25c-2.85,-1.61 -5.6,-3.37 -8.31,-5.19c-5.18,-3.36 -11.49,-5.43 -17.69,-4.35c-5.36,0.93 -10.39,3.19 -13.2,8.1c5.46,-1.6 10.65,-5.33 16.19,-5.5c5.28,0.04 10.65,2.46 14.89,5.5c2.43,1.84 5.09,4.47 4.39,7.82c-1.37,7.21 -4.04,14.09 -5.03,21.41c-1.37,6.91 -0.23,13.44 1.37,20.18c2.04,8.01 6.2,14.74 8.3,22.67c1.6,6.28 1.72,12.88 0.43,19.23c-0.18,1.51 -1.15,2.18 -2.12,3.21c-6.88,-8.32 -11.32,-18.67 -13.54,-29.17c-0.74,-8.76 -0.27,-18.56 -2.74,-27.61c-4.22,3.5 -6.34,8.47 -10.87,11.63c-8.94,-1.62 -14.99,-7.21 -21.08,-13.5c-4.98,-5.27 -8.92,-12.64 -8.86,-20.03c-0.38,-9.51 4.63,-19.13 10.47,-26.36c6.1,-7.6 13.78,-11.64 21.05,-17.87c5.31,-4.56 11.02,-8.58 16.93,-12.31c2.86,-1.81 5.95,-2.93 9.37,-3z" id="p21"/>
  <path d="m611.1,384.73c5.28,0.01 10.48,3.49 13.64,7.54c2.32,3.02 1.82,6.18 1.87,9.75c-3.9,-1.79 -7.19,-4.43 -10.36,-7.28c-3.11,-2.68 -5.16,-5.75 -5.15,-10.01z" id="p22"/>
  <path d="m371.5,394.67c5.56,-1.25 11.81,0.98 14.63,6.1c3.98,6.6 3.23,15.36 -3.03,20.28c-5.74,4.53 -13.78,2.4 -18.05,-3.04c-3.01,-3.78 -3.16,-8.29 -2.71,-12.91c0.57,-4.86 4.49,-9.13 9.16,-10.43z" id="p23"/>
  <path d="m771.71,398.45c3.17,1.67 7.46,4.38 8.45,8.04c1.41,11.32 -1.17,22.67 -4.51,33.43c-1.41,4.78 -4.5,8.68 -5.95,13.45c3.49,0.08 6.85,-0.59 10.3,-0.96c5.46,-0.55 9.9,1.13 15.4,1.68c-0.69,-4.66 -3.13,-8.34 -4.48,-12.78c-1.1,-3.34 -1.43,-6.77 -1.66,-10.26c3.01,5.98 3.95,12.67 6.92,18.62c0.94,1.88 2.41,3.15 4.62,2.47c6.73,-1.77 13.15,-5.31 18.42,-9.86c3.86,-3.31 8.6,-6.37 11.6,-10.5c2.07,-2.82 1.91,-6.45 1.45,-9.75c-1.09,-4.94 -3.41,-9.76 -7.59,-12.81c-6.57,-5.09 -14.55,-9.03 -22.7,-10.68c-5.4,-0.01 -12.96,2.51 -14.22,8.55c-0.64,4.93 0.12,10 -0.22,14.98c-1.5,-4.96 -1.35,-9.87 -1.03,-14.98c0.13,-3.39 2.62,-5.5 5.19,-7.3c3.78,-2.45 8.05,-4.21 12.58,-2.84c6.38,1.91 12.43,5.49 18.23,8.69c2.76,1.64 5.99,3.16 7.5,6.16c2.96,5.59 4.6,12.47 3.26,18.74c-1.32,3.11 -4.44,5.57 -6.73,8.01c-7.65,8.08 -18.19,12.53 -28.38,16.42c2.79,3.91 6.8,6.32 9.79,10.04c2.82,3.48 4.72,7.65 7.29,11.33c3.22,-3.92 3.52,-8.31 5.37,-13.01c3.04,-8.57 7.88,-15.48 12.83,-22.98c1.72,-2.43 3.69,-5.3 6.86,-5.79c4.17,-0.61 8.79,1.81 12.12,4.12c3.51,2.4 4.71,6.71 6.29,10.43c2.96,7.16 5.32,14.43 6.73,22.06c0.74,4.61 -0.84,8.68 -2.7,12.8c-1.32,2.54 -3.25,6.47 -6.18,7.34c-8.08,1.23 -16.94,-0.9 -24.58,-3.51c-5.67,-1.83 -10,-5.65 -15.39,-8.01c0.04,4.79 1.22,9.42 1.16,14.21c0.11,5.3 -1.31,10.25 -1.66,15.52c4.57,-1.24 8.21,-4 12.57,-5.7c4.76,-2.01 9.75,-3.27 14.82,-4.2c4.11,-0.77 8.92,-1.77 13.06,-0.89c3.84,1.3 5.85,4.75 6.98,8.42c0.99,3.47 2.5,7.7 1.63,11.3c-2.29,9.93 -5.66,19.49 -10.34,28.55c-1.63,3.14 -4.8,4.46 -7.86,5.87c-3.12,1.38 -6.86,2.36 -10.19,1.16c-2.63,-1.19 -4.52,-4.29 -6.14,-6.59c-3.64,-5.67 -7.39,-10.66 -9.81,-17c-2.33,-5.68 -3.25,-11.73 -5.72,-17.36c-3.9,3.6 -6.15,8.38 -10.04,11.97c-3.09,2.84 -6.39,5.68 -10.08,7.73c-6.65,3.34 -14.43,3.47 -21.53,1.58c-1.14,-0.1 -3.08,-1.03 -3.64,0.48c1.64,4.58 4.31,8.72 5.85,13.36c3.52,10.58 5.77,21.27 4.6,32.47c-0.51,3.48 -4,5.99 -6.8,7.66c-3.57,1.93 -7.57,4.14 -11.72,2.73c-7.42,-2.2 -14.48,-5.89 -21.16,-9.77c-5.55,-2.96 -8.28,-9.37 -9.36,-15.26c-0.73,-3.49 0.22,-7.46 2.84,-9.97c2.89,-2.78 6.06,-5.27 8.96,-8.05c7.5,-6.78 15.99,-10.34 24.76,-14.89c-3.86,-3.75 -8.34,-7.03 -11.76,-11.11c-2.26,-2.79 -4.11,-5.95 -6.18,-8.9c-2.51,3.08 -2.44,6.5 -3.75,10.18c-2.73,8.14 -7.13,16 -11.58,23.32c-1.9,2.93 -4.61,6.47 -8.01,7.66c-4.22,1.04 -9,-1.16 -12.58,-3.27c-2.59,-1.43 -4.18,-3.7 -5.47,-6.28c-3.21,-6.45 -6.05,-13.03 -7.8,-20.04c-1,-4.37 -2.84,-8.07 -1.43,-12.56c1.18,-4.16 2.35,-10.06 6.31,-12.48c3.06,-1.89 7.72,-1.26 11.12,-0.77c6.5,1.38 13.51,2.54 19.63,5.14c4.1,1.64 7.34,4.42 11.69,5.53c-0.32,-5.29 -1.83,-10.23 -1.69,-15.54c-0.06,-4.8 1.1,-9.43 1.16,-14.22c-2.8,1.26 -5.4,2.81 -7.96,4.51c-6.7,4.49 -15.64,6.19 -23.52,7.24c-3.44,0.15 -8.08,0.94 -10.73,-1.78c-3,-2.72 -4.54,-7.32 -5.77,-11.08c-1,-3 -1.31,-6.05 -0.6,-9.16c1.97,-8.55 4.68,-17.26 8.78,-25.05c2.24,-4.46 6.67,-7.58 11.2,-9.42c2.72,-1.09 5.76,-0.59 8.12,1.09c3,2.1 5.19,5.63 7.05,8.72c4.44,7.64 8.97,15.81 11.67,24.24c0.82,2.51 1.91,4.9 3.14,7.24c3.75,-5.23 6.03,-10.52 10.69,-14.83c2.35,-2.11 4.76,-4.15 6.97,-6.42c-4.91,-2.09 -9.81,-3.64 -14.51,-6.17c-7.34,-3.8 -13.88,-9.32 -19.41,-15.43c-2.93,-3.04 -2.33,-7.5 -2,-11.35c0.81,-4.6 2.28,-10.33 6.38,-13.1c6.69,-4.99 14.24,-8.85 22.03,-11.78c4.38,-1.7 8.71,-0.97 12.75,1.2zm-8.37,-0.17c-6.28,0.97 -12.4,3.97 -17.93,7c-4.15,2.46 -8.67,4.92 -10.69,9.56c-1.92,4.3 -3.34,9.76 -2.19,14.43c1.51,3.91 5.29,7.16 8.4,9.84c5.79,4.64 12.2,9.34 19.16,12.03c2.37,0.88 5.19,1.78 7.69,0.95c3.01,-3.36 4.48,-8.3 6.08,-12.45c3.24,-9.77 5.28,-20.38 4.56,-30.7c-0.12,-3.45 -2.46,-5.55 -5.08,-7.41c-2.98,-1.98 -6.31,-3.7 -10,-3.25zm-30.71,48.14c-2.5,-3.48 -4.82,-8.73 -8.73,-10.74c-2.76,-0.6 -6.02,1.39 -8.33,2.76c-2.75,1.69 -5.12,3.78 -6.53,6.74c-4.05,7.94 -6.28,16.15 -8.41,24.76c-1.25,5.15 0.7,9.85 2.92,14.41c1.44,2.66 3.18,5.43 6.45,5.88c6.32,0.73 13.38,-1.7 19.35,-3.64c5.01,-1.73 11.03,-3.64 14.95,-7.33c1.48,-1.31 1.57,-2.87 1.28,-4.7c-2.25,-10.34 -7.06,-19.44 -12.95,-28.14zm129.84,18.48c-1.77,-7.39 -4.39,-14.48 -8.28,-21.03c-2.49,-3.92 -7.04,-6.65 -11.35,-8.11c-2.1,-0.83 -4.09,1.32 -5.49,2.61c-7.12,7.76 -11.66,17.81 -15.83,27.36c-1.24,3.08 -2.75,6.29 -3.25,9.58c-0.41,2.16 1.36,3.41 2.79,4.66c6.36,4.9 14.56,7.04 22.18,9.12c3.62,0.91 7.98,1.92 11.65,1c5.02,-1.86 7.25,-7.97 8.74,-12.65c1.62,-4.52 -0.08,-8.18 -1.16,-12.54zm-81.14,-3.46c-8.77,1.37 -16.23,9.3 -18.42,17.7c-1.71,6.61 -3.65,13.14 -2.25,20.01c1.8,7.71 5.03,14.83 11.42,19.8c5.28,4.53 12.44,6.09 19.12,4.17c6.21,-2.25 11.41,-6.69 14.49,-12.55c5.36,-9.4 5.88,-20.7 2.52,-30.88c-2.12,-6.5 -6.6,-12.79 -12.63,-16.17c-4.39,-2.54 -9.34,-2.59 -14.25,-2.08zm-61.01,39.92c-3.31,-0.66 -6.82,-1.77 -10.21,-1.63c-5.78,1.5 -7.9,7.35 -9.15,12.57c-1.18,4.64 0.34,8.53 1.63,12.91c2.03,6.3 4.07,13 7.24,18.81c3.07,5.76 9.63,9.45 16.19,8.45c1.56,-0.11 2.39,-1.06 3.33,-2.17c8.16,-10.74 14.78,-21.83 17,-35.35c0.3,-2.21 -0.28,-3.99 -2.25,-5.17c-7.09,-4.31 -15.71,-6.7 -23.78,-8.42zm124.21,-0.06c-8.29,1.6 -16.47,4.34 -24.01,8.15c-2.45,1.19 -3.13,3.82 -2.72,6.35c0.68,3.92 2.25,7.79 3.76,11.46c3.26,7.71 6.77,15.45 12.38,21.78c1.66,1.72 3.45,3.64 6.04,3.55c5.4,0.15 11.18,-3.18 13.79,-7.92c2.68,-4.61 4.95,-9.5 6.53,-14.59c1.27,-4.64 3.22,-9.3 3.77,-14.07c-0.65,-4.76 -2.07,-10.99 -5.8,-14.3c-3.93,-3.72 -9.15,-1.1 -13.74,-0.41zm-99.03,47.16c-3.96,3.25 -9.51,6.84 -11.59,11.64c-2.28,6.68 1.26,16.12 7.49,19.59c6.23,4.13 13.19,7.69 20.4,9.73c4.33,1.23 8.08,-0.57 11.58,-2.98c2.45,-1.84 4.85,-4.12 5.02,-7.38c0.69,-9 -1.01,-18.35 -3.26,-27.05c-1.64,-4.84 -3.27,-9.95 -5.9,-14.36c-0.89,-1.53 -2.6,-1.21 -4.07,-0.92c-7.77,2.06 -13.66,6.65 -19.67,11.73z" id="p24"/>
  <path d="m287.36,397.18c2.93,0.73 4.1,3.69 5.25,6.17c3.13,8.08 6.12,16.26 9.69,24.17c2.73,6.31 8.12,11.48 13.38,15.79c3.61,2.58 8.67,5.59 13.25,5.06c1.7,-1.35 2.64,-3.14 3.54,-5.07c2.39,-5.25 3.49,-10.91 5.91,-16.16c4.81,0.95 9.11,3.44 11.78,7.64c4.93,7.58 5.84,15.66 6.96,24.41c0.63,5.31 -0.61,11.06 -1.39,16.33c-2.26,15.14 -10.2,26.89 -11.22,42.47c-0.31,5.2 1.43,10.23 5.38,13.72c6.11,-3.63 9.89,-8.77 15.05,-13.76c5.63,-5.8 12.45,-10.09 17.85,-16.17c3.9,-3.97 6.06,-8.48 10.63,-11.69c0.8,4.11 1.39,8.26 1.83,12.42c0.6,5.3 -0.69,10.83 -2.11,15.91c-3.77,12.05 -9.93,22.05 -15.89,32.97c-4.52,8.1 -6.65,17.34 -5.51,26.59c0.15,1.69 1.17,2.67 2.15,3.94c2.04,-2.35 3.97,-4.77 5.64,-7.39c3.77,-5.86 8.19,-11.07 12.65,-16.39c4.84,-5.73 9.79,-10.79 13.62,-17.32c2.41,-3.74 3.73,-7.47 7.75,-9.81c2.58,12.76 0.33,25.72 -2.53,38.2c-2.14,8.61 -1.32,17.1 -2.27,25.83c-0.75,8.34 -0.12,16.7 -0.96,25.02c-5.65,0.74 -11.08,0.49 -16.83,0.53c-2.04,-0.19 -4.6,0.29 -5.91,-1.67c-3.05,-3.69 -5.07,-8.34 -7.61,-12.39c-2.43,-4.12 -5.76,-8.07 -7.49,-12.45c-2.52,-6.17 -1.76,-12.63 -4.82,-18.67c-6.75,6.99 -7.06,17.32 -11.8,24.56c-4.79,-8.28 -6.17,-19.61 -11.6,-27.71c-2.47,-3.72 -6.26,-5.46 -10.54,-6.18c0.04,5.15 1.19,10.07 1.98,15.12c1.15,6.34 -2.17,12.49 -7.1,16.31c-6.02,-8.02 -8.98,-18.66 -14.74,-26.87c-3.4,-4.9 -8.3,-8.48 -11.68,-13.32c-3.27,-4.63 -3.21,-10.73 -4.12,-16.2c-1.83,-0.17 -2.99,-0.53 -4.3,1.08c-3.05,3.81 -5.18,8.61 -6.66,13.25c-2.15,8.29 -0.65,18.1 -0.48,26.57c-0.04,8.16 -3.75,16.13 -8.29,22.76c-2.73,3.7 -6.23,7.17 -11.21,6.79c-0.54,-7.74 1.99,-14.94 1.82,-22.63c-0.05,-1.87 -0.8,-3.75 -1.4,-5.52c-6.22,5.36 -7.87,13.06 -15.49,17.44c-1.32,-2.28 -2.65,-4.54 -3.96,-6.82c-7.84,4.81 -9.83,16.4 -14.6,23.82c-2.77,4.4 -6.23,10.71 -11.98,11.3c-6.52,0.72 -13.25,0.27 -19.76,-0.4c-12.76,-1.08 -25.74,-1.07 -38.13,-4.65c-2.67,-0.92 -5.62,-1.71 -6.66,-4.66c-2.41,-6.34 -3.23,-13.41 -2.29,-20.13c1.24,-9.66 3.56,-19.03 8.67,-27.43c4.18,-7.23 10.39,-14.04 13.01,-21.86c1.65,-4.62 1.91,-9.32 2.86,-14.07c0.3,-1.57 1.23,-2.63 2.2,-3.85c5.19,6.09 5.95,12.98 8.94,20.1c1.44,3.33 2.46,6.48 5.48,8.73c1.08,-3.58 1.99,-7.16 2.12,-10.92c0.33,-11 -0.38,-22.07 0.29,-33.06c1.14,-10.05 3.68,-20.05 9.93,-28.2c3.86,-5.03 7.6,-11.41 13.07,-14.77c2.01,7.01 1.58,14.25 3.31,21.34c1.76,8.9 6.18,15.66 9.93,23.75c1.54,3.34 3.17,6.58 5.38,9.54c0.79,-0.05 1.58,-0.04 2.39,0.05c4.34,-7.3 4.89,-15.73 3.71,-23.98c-1.47,-11.07 -5.83,-20.25 -9.56,-30.64c-3.06,-8 -3.21,-17.15 -1.03,-25.38c2.51,-8.3 7,-16.13 12.43,-22.86c2.77,2.06 2.98,5.19 3.87,8.3c1.9,8.33 3.22,17.16 8.76,24.01c3.38,4.22 8.17,5.61 13.34,6.22c0.54,-4.79 0.28,-9.55 0.31,-14.35c0.06,-7.08 2.62,-13.9 5.04,-20.46c2.33,-6.11 4.25,-12.4 6.27,-18.64c1.48,-4.49 2.38,-9.51 4.5,-13.71zm3.17,111.5c1.34,0.34 2.7,0.66 4.03,1.03c3.66,-4.75 7.72,-10.42 7.24,-16.72c0,-4.45 -2.98,-8.04 -5.01,-11.77c-2.8,-4.66 -3.53,-9.75 -5.87,-14.62c-3.09,2.57 -4.7,6.96 -5.86,10.7c-1.53,4.44 1.19,9.79 2.66,13.98c2.39,5.64 2.57,11.38 2.81,17.4zm-26.24,59.16c1.55,0.02 3.1,0.15 4.64,0.31c2.49,-5.9 1.86,-12.67 -1.82,-17.92c-1.15,0.95 -2.29,1.81 -3.2,2.99c-0.98,4.69 -0.4,9.93 0.38,14.62z" id="p25"/>
  <path d="m763.34,398.28c3.69,-0.45 7.02,1.27 10,3.25c2.62,1.86 4.96,3.96 5.08,7.41c0.72,10.32 -1.32,20.93 -4.56,30.7c-1.6,4.15 -3.07,9.09 -6.08,12.45c-2.5,0.83 -5.32,-0.07 -7.69,-0.95c-6.96,-2.69 -13.37,-7.39 -19.16,-12.03c-3.11,-2.68 -6.89,-5.93 -8.4,-9.84c-1.15,-4.67 0.27,-10.13 2.19,-14.43c2.02,-4.64 6.54,-7.1 10.69,-9.56c5.53,-3.03 11.65,-6.03 17.93,-7zm7.22,35.2c1.59,-4.79 3.31,-9.29 3.15,-14.44c-0.2,-3.88 1.28,-9.04 -0.11,-12.58c-3.8,-3.3 -9.48,-5.07 -14.38,-3.25c-6.69,1.53 -12.26,5.23 -17.46,9.56c-3.64,3.54 -5.27,9.31 -5.46,14.26c-0.23,2.82 1.34,4.62 3.13,6.53c5.33,5.5 11.7,10.16 18.71,13.29c2.73,1.12 6.66,1.76 8.41,-1.29c2.07,-3.62 2.66,-8.15 4.01,-12.08z" id="p26"/>
  <path d="m773.6,406.46c1.39,3.54 -0.09,8.7 0.11,12.58c0.16,5.15 -1.56,9.65 -3.15,14.44c-1.35,3.93 -1.94,8.46 -4.01,12.08c-1.75,3.05 -5.68,2.41 -8.41,1.29c-7.01,-3.13 -13.38,-7.79 -18.71,-13.29c-1.79,-1.91 -3.36,-3.71 -3.13,-6.53c0.19,-4.95 1.82,-10.72 5.46,-14.26c5.2,-4.33 10.77,-8.03 17.46,-9.56c4.9,-1.82 10.58,-0.05 14.38,3.25z" id="p27"/>
  <path d="m800.99,401.7c3.24,0.17 6.53,1.6 9.49,2.85c4.4,2 8.89,4.21 12.74,7.17c2.84,2.08 4.04,5.77 5.17,8.97c0.85,2.87 2.07,6.03 0.03,8.71c-4.94,6.95 -12.12,9.37 -19.31,14.71c-2.56,1.4 -6.75,4.95 -9.51,2.33c-4.25,-2.82 -3.53,-7.66 -4.45,-12.11c-1.01,-5.52 -3.15,-10.59 -3.44,-16.29c-0.22,-4.2 -0.69,-9.38 1.12,-13.27c2.22,-1.88 5.29,-2.89 8.16,-3.07z" id="p28"/>
  <path d="m319.71,407.63c12.24,0.34 24.88,5.3 33.37,14.29c4.73,4.39 6.98,9.86 9.31,15.73c2.09,5.43 2.36,11.61 2.15,17.36c-0.01,1.84 -0.76,3.36 -1.48,5c-2.39,-4.41 -2.63,-9.05 -3.53,-13.85c-0.66,-3.73 -2.25,-7.15 -4.41,-10.24c-5.04,-7.03 -11.19,-12.85 -20.08,-14.2c-3,4.64 -3.85,10.06 -6.45,14.84c-1.82,0.34 -2.56,-2.57 -3.35,-3.78c-3.26,-7.62 -6.66,-16.77 -5.53,-25.15z" id="p29"/>
  <path d="m413.77,409.13c1.25,8.41 -0.84,17.43 -4.61,24.98c-4.13,8.65 -11.28,16.7 -19.99,20.85c-2.42,-11.69 -0.49,-24.56 6.32,-34.52c3.98,-6.49 10.49,-11.14 18.28,-11.31z" id="p30"/>
  <path d="m723.9,435.68c3.91,2.01 6.23,7.26 8.73,10.74c5.89,8.7 10.7,17.8 12.95,28.14c0.29,1.83 0.2,3.39 -1.28,4.7c-3.92,3.69 -9.94,5.6 -14.95,7.33c-5.97,1.94 -13.03,4.37 -19.35,3.64c-3.27,-0.45 -5.01,-3.22 -6.45,-5.88c-2.22,-4.56 -4.17,-9.26 -2.92,-14.41c2.13,-8.61 4.36,-16.82 8.41,-24.76c1.41,-2.96 3.78,-5.05 6.53,-6.74c2.31,-1.37 5.57,-3.36 8.33,-2.76zm14.85,28.74c-1.26,-3.89 -1.48,-7.66 -4.1,-11.03c-3.24,-4.37 -6.11,-9.4 -10.07,-13.13c-2.97,-0.97 -7.3,1.84 -9.66,3.59c-4.24,3.08 -5.04,7.86 -6.64,12.51c-1.53,5.15 -4.12,9.2 -4.14,14.6c-0.48,5.6 1.62,12.59 6,16.25c3.52,0.47 7.34,-0.65 10.83,-1.19c6.28,-1.04 11.78,-3.72 17.35,-6.67c1.45,-0.86 3.34,-1.82 4,-3.45c0.06,-3.82 -2.43,-7.86 -3.57,-11.48z" id="p31"/>
  <path d="m842.84,435.76c4.31,1.46 8.86,4.19 11.35,8.11c3.89,6.55 6.51,13.64 8.28,21.03c1.08,4.36 2.78,8.02 1.16,12.54c-1.49,4.68 -3.72,10.79 -8.74,12.65c-3.67,0.92 -8.03,-0.09 -11.65,-1c-7.62,-2.08 -15.82,-4.22 -22.18,-9.12c-1.43,-1.25 -3.2,-2.5 -2.79,-4.66c0.5,-3.29 2.01,-6.5 3.25,-9.58c4.17,-9.55 8.71,-19.6 15.83,-27.36c1.4,-1.29 3.39,-3.44 5.49,-2.61zm14.47,24.13c-1.52,-5.77 -3.87,-11.22 -7.03,-16.27c-1.71,-2.16 -4.86,-3.76 -7.56,-4.17c-2.96,-0.46 -4.51,2.19 -6.03,4.24c-3.04,4.73 -5.63,9.76 -8.35,14.69c-2.1,4.05 -4.14,8.45 -4.89,12.98c-0.43,2.83 0.45,5.63 2.78,7.38c7.12,5.41 15.38,7.25 24.02,8.7c1.62,0.04 3.91,0.58 4.85,-1.15c2.31,-3.6 5.32,-7.82 5.19,-12.25c0.27,-5.09 -1.42,-9.44 -2.98,-14.15z" id="p32"/>
  <path d="m842.72,439.45c2.7,0.41 5.85,2.01 7.56,4.17c3.16,5.05 5.51,10.5 7.03,16.27c1.56,4.71 3.25,9.06 2.98,14.15c0.13,4.43 -2.88,8.65 -5.19,12.25c-0.94,1.73 -3.23,1.19 -4.85,1.15c-8.64,-1.45 -16.9,-3.29 -24.02,-8.7c-2.33,-1.75 -3.21,-4.55 -2.78,-7.38c0.75,-4.53 2.79,-8.93 4.89,-12.98c2.72,-4.93 5.31,-9.96 8.35,-14.69c1.52,-2.05 3.07,-4.7 6.03,-4.24z" id="p33"/>
  <path d="m724.58,440.26c3.96,3.73 6.83,8.76 10.07,13.13c2.62,3.37 2.84,7.14 4.1,11.03c1.14,3.62 3.63,7.66 3.57,11.48c-0.66,1.63 -2.55,2.59 -4,3.45c-5.57,2.95 -11.07,5.63 -17.35,6.67c-3.49,0.54 -7.31,1.66 -10.83,1.19c-4.38,-3.66 -6.48,-10.65 -6,-16.25c0.02,-5.4 2.61,-9.45 4.14,-14.6c1.6,-4.65 2.4,-9.43 6.64,-12.51c2.36,-1.75 6.69,-4.56 9.66,-3.59z" id="p34"/>
  <path d="m406.62,447.35c1.53,2.46 5.15,6.97 3.62,9.95c-8.12,10.3 -19.71,18.55 -32.54,21.71c-5.81,1.53 -11.46,2.97 -17.54,2.37c0.36,-4.55 1.14,-8.97 2.01,-13.44c11.27,-0.87 21.99,-2.83 31.58,-9.19c5.15,-3.02 8.44,-7.6 12.87,-11.4z" id="p35"/>
  <path d="m533,454.27c8.54,0.11 17.17,-0.29 25.68,0.44c8.06,1 16.25,1.16 24.35,0.61c7,-0.86 14.66,-1.71 21.7,-0.73c4.53,0.92 9.44,2.88 13.27,5.49c3.72,2.6 4.62,6.91 5.66,11.04c1.62,7.84 3.48,15.17 2.69,23.25c-8.31,0.98 -15.69,-1.24 -23.85,-2.13c-10.11,-1.23 -20.31,-2.45 -30.5,-2.7c-11.42,0.05 -22.69,-0.45 -34.07,0.84c-10.87,0.53 -21.01,3.95 -31.74,5.18c-0.3,-1.85 -0.5,-3.71 -0.32,-5.59c0.79,-8.58 1.62,-17.37 3.47,-25.79c0.83,-3.05 1.56,-6.48 4.8,-7.82c5.66,-2.46 12.79,-2.01 18.86,-2.09z" id="p36"/>
  <path d="m420.47,457.05c6.83,0.92 13.62,-0.04 20.46,0.75c8.09,1.09 15.84,0.58 24.07,0.71c6.38,0.14 12.63,-1.15 19,-1.06c6.81,0.09 13.54,-0.26 20.31,0.24c0.85,8.79 -1.51,16.7 -2.81,25.38c-0.53,3.83 -1.23,7.6 -2.39,11.3c-10.38,0.27 -20.66,-2.72 -31.07,-2.8c-13.34,-0.05 -26.69,0.03 -40.04,-0.05c-9.29,-0.05 -18.64,1.78 -27.89,1.73c-2.62,-4.12 -3.26,-9.71 -4.71,-14.35c3.51,-4.81 8.67,-7.53 12.48,-12.03c2.69,-2.97 4.86,-6.58 7.85,-9.25c1.42,-1.28 3.01,-0.62 4.74,-0.57z" id="p37"/>
  <path d="m781.33,461.44c4.91,-0.51 9.86,-0.46 14.25,2.08c6.03,3.38 10.51,9.67 12.63,16.17c3.36,10.18 2.84,21.48 -2.52,30.88c-3.08,5.86 -8.28,10.3 -14.49,12.55c-6.68,1.92 -13.84,0.36 -19.12,-4.17c-6.39,-4.97 -9.62,-12.09 -11.42,-19.8c-1.4,-6.87 0.54,-13.4 2.25,-20.01c2.19,-8.4 9.65,-16.33 18.42,-17.7zm-5.33,49.32c3.81,-2.77 5.7,-6.63 6.97,-11.06c1.31,-3.77 1.51,-7.91 4.29,-10.8c0.37,2.79 0.68,5.58 1.12,8.36c1.36,-2.41 1.69,-5.29 2.98,-7.69l1.62,-0.57c0.66,4.3 -0.58,8.12 -1.68,12.21c-0.4,1.27 -0.3,2.45 -0.08,3.74c2.53,-4.69 3.01,-9.87 4.84,-14.76c0.45,-0.45 0.91,-0.88 1.39,-1.3c0.42,2.38 0.78,4.78 1.14,7.18c1.13,-2.66 1.73,-5.18 3.94,-7.2c0.64,7.54 -1.01,15.1 -5.28,21.39c-2.29,3.07 -5.7,5.26 -8.34,8.06c6.06,-0.3 9.16,-4.5 12.35,-9.06c7.13,-11.81 5.86,-27.8 -3.41,-38.12c-4.12,-4.28 -9.98,-6.29 -15.86,-5.23c-5.98,0.99 -10.61,5.61 -13.33,10.79c-2.54,4.98 -4.38,10.69 -4.32,16.33c-0.39,3.39 2.88,5.39 4.41,8.3c2.03,3.64 3.66,7.01 7.25,9.43z" id="p38"/>
  <path d="m781.99,465.91c5.88,-1.06 11.74,0.95 15.86,5.23c9.27,10.32 10.54,26.31 3.41,38.12c-3.19,4.56 -6.29,8.76 -12.35,9.06c2.64,-2.8 6.05,-4.99 8.34,-8.06c4.27,-6.29 5.92,-13.85 5.28,-21.39c-2.21,2.02 -2.81,4.54 -3.94,7.2c-0.36,-2.4 -0.72,-4.8 -1.14,-7.18c-0.48,0.42 -0.94,0.85 -1.39,1.3c-1.83,4.89 -2.31,10.07 -4.84,14.76c-0.22,-1.29 -0.32,-2.47 0.08,-3.74c1.1,-4.09 2.34,-7.91 1.68,-12.21l-1.62,0.57c-1.29,2.4 -1.62,5.28 -2.98,7.69c-0.44,-2.78 -0.75,-5.57 -1.12,-8.36c-2.78,2.89 -2.98,7.03 -4.29,10.8c-1.27,4.43 -3.16,8.29 -6.97,11.06c-3.59,-2.42 -5.22,-5.79 -7.25,-9.43c-1.53,-2.91 -4.8,-4.91 -4.41,-8.3c-0.06,-5.64 1.78,-11.35 4.32,-16.33c2.72,-5.18 7.35,-9.8 13.33,-10.79z" id="p39"/>
  <path d="m290.92,466.6c2.34,4.87 3.07,9.96 5.87,14.62c2.03,3.73 5.01,7.32 5.01,11.77c0.48,6.3 -3.58,11.97 -7.24,16.72c-1.33,-0.37 -2.69,-0.69 -4.03,-1.03c-0.24,-6.02 -0.42,-11.76 -2.81,-17.4c-1.47,-4.19 -4.19,-9.54 -2.66,-13.98c1.16,-3.74 2.77,-8.13 5.86,-10.7zm4.36,30.46c1.88,-3.04 2.25,-7.53 0.23,-10.59c-1.63,-2.58 -3.84,-4.52 -6.31,-6.26c0.1,6.33 2.78,11.63 6.08,16.85z" id="p40"/>
  <path d="m289.2,480.21c2.47,1.74 4.68,3.68 6.31,6.26c2.02,3.06 1.65,7.55 -0.23,10.59c-3.3,-5.22 -5.98,-10.52 -6.08,-16.85z" id="p41"/>
  <path d="m392.14,480.68c-0.94,2.77 -2.27,5.09 -4.05,7.39c-1.92,2.51 -3.93,5.57 -6.64,7.26c-3.35,0.96 -6.89,0.24 -10.16,-0.68c0.14,-1.85 -0.08,-4.06 0.67,-5.79c1.4,-1.89 4.54,-2.47 6.65,-3.28c4.66,-1.39 8.75,-3.88 13.53,-4.9z" id="p42"/>
  <path d="m366.46,488.77c-0.3,2.11 -0.84,3.94 -1.71,5.88c-2.5,-0.05 -5,-0.06 -7.5,-0.09c0.17,-1.6 0.3,-3.2 0.48,-4.81c2.92,-1 5.65,-1.19 8.73,-0.98z" id="p43"/>
  <path d="m568.84,493.65c16.21,1.35 32.41,3.4 48.52,5.64c2.78,0.42 5.82,0.69 8.41,1.8c1.83,1.36 1.68,4.82 1.79,6.87c-0.08,5.29 0.32,10.71 -0.38,15.96c-1.38,1.89 -4.23,0.88 -6.2,0.71c-0.72,2.17 -0.86,4.91 0.56,6.82c1.66,1.5 3.8,2.53 5.75,3.6c0.54,5.99 0.26,11.95 0.34,17.94c0.1,5.11 0.22,9.78 -2.59,14.28c-13.03,-1.33 -26.03,-0.08 -39.05,-0.81c-8.65,-1.13 -17.39,-1.21 -26.04,-0.12c-10.1,0.41 -19.85,1.92 -29.98,0.99c-6.33,-0.68 -12.69,-1.06 -19,-1.84c-2.12,-0.36 -4.79,-0.71 -6.1,-2.63c-0.72,-4.19 -0.32,-8.62 -0.4,-12.86c0.08,-4.27 -0.33,-8.68 0.28,-12.91c0.78,-2.98 3.7,-5.46 5.4,-7.99c1.7,-2.14 2.11,-4.59 2.62,-7.19c-2.31,-1.18 -5.03,-2.01 -7.22,-3.43c-1.85,-3.75 -1.32,-9.02 -0.81,-13.06c0.49,-3.3 2.96,-4.55 5.81,-5.57c9.29,-3.09 20.16,-3.57 29.79,-5.23c9.28,-1.71 19.09,-1.21 28.5,-0.97z" id="p44"/>
  <path d="m406.09,498.57c5.97,-0.28 11.94,0.09 17.91,-0.46c9.21,-0.91 18.69,-0.48 28,-0.57c8.87,0.12 17.91,-0.39 26.66,0.56c5.59,0.53 11.61,0.6 17.02,2.15c2.75,0.84 3.56,4.18 3.77,6.7c0.16,3.18 0.38,6.71 -0.53,9.78c-1.38,2.14 -4.33,3.48 -6.43,4.88c-0.13,3.98 0.21,7.51 1.31,11.35c1.72,0.91 4.35,1.56 4.83,3.7c1.17,3.83 0.77,8.29 1.04,12.28c0.18,4.76 1.46,10.24 0.44,14.89c-0.95,1.36 -3.37,1.51 -4.89,1.84c-5.69,0.75 -11.48,1.9 -17.22,1.91c-6,0.05 -12.03,-0.14 -18.04,0.02c-8.8,0.21 -17.13,2.22 -25.97,2.08c-4.96,-0.08 -10.01,0.24 -14.94,-0.31c-1.86,-0.26 -2.75,-1.53 -2.53,-3.39c0.22,-5.67 1.85,-11.22 1.85,-16.94c0.04,-6.66 0.17,-13.35 -0.02,-20.01c-0.09,-3.52 -1.24,-6.71 -2.66,-9.89c-2.11,0.75 -4.07,1.15 -5.42,3.11c-3.6,5.1 -4.93,11.57 -8.27,16.9c-3.84,6.21 -8.86,11.73 -13.42,17.42c-3.81,4.35 -6.8,9.04 -12.24,11.38c0.24,-5.51 1.3,-10.87 4,-15.74c6.01,-10.87 14.99,-21.98 17.94,-34.19c1.52,-5.5 1.45,-11.37 3.12,-16.79c0.68,-2.23 2.67,-2.5 4.69,-2.66z" id="p45"/>
  <path d="m365.36,502.53c0.95,3.51 0.67,7.31 -1.49,10.32c-3.5,5.1 -7.42,9.68 -12.97,12.63c-2.61,-4.68 -1.32,-11.27 0.17,-16.16c1.14,-3.13 2.26,-7.35 4.89,-9.54c3.05,-1.37 7.9,-0.54 9.4,2.75z" id="p46"/>
  <path d="m710.11,499.73c3.39,-0.14 6.9,0.97 10.21,1.63c8.07,1.72 16.69,4.11 23.78,8.42c1.97,1.18 2.55,2.96 2.25,5.17c-2.22,13.52 -8.84,24.61 -17,35.35c-0.94,1.11 -1.77,2.06 -3.33,2.17c-6.56,1 -13.12,-2.69 -16.19,-8.45c-3.17,-5.81 -5.21,-12.51 -7.24,-18.81c-1.29,-4.38 -2.81,-8.27 -1.63,-12.91c1.25,-5.22 3.37,-11.07 9.15,-12.57zm32.8,13.57c-5.3,-3.83 -11.31,-6.11 -17.59,-7.76c-5.32,-1.44 -11.37,-2.76 -16.88,-2.02c-2.8,6.06 -5,13.89 -2.38,20.36c2.45,6.58 4.11,13.57 7.13,19.9c1.73,4.54 7.22,5.13 11.41,4.71c4.67,-2.31 8,-8.07 10.47,-12.5c3.62,-6.87 7.55,-14.82 7.84,-22.69z" id="p47"/>
  <path d="m858.27,501.71c3.73,3.31 5.15,9.54 5.8,14.3c-0.55,4.77 -2.5,9.43 -3.77,14.07c-1.58,5.09 -3.85,9.98 -6.53,14.59c-2.61,4.74 -8.39,8.07 -13.79,7.92c-2.59,0.09 -4.38,-1.83 -6.04,-3.55c-5.61,-6.33 -9.12,-14.07 -12.38,-21.78c-1.51,-3.67 -3.08,-7.54 -3.76,-11.46c-0.41,-2.53 0.27,-5.16 2.72,-6.35c7.54,-3.81 15.72,-6.55 24.01,-8.15c4.59,-0.69 9.81,-3.31 13.74,0.41zm-2.71,1.69c-4.39,-0.32 -8.55,0.27 -12.81,1.24c-5.45,1.26 -10.29,0.78 -15.14,3.94c-2.09,1.47 -5.86,3.32 -5.25,6.38c0.79,5.27 3.69,10.22 5.22,15.34c2,6.76 5.19,12.94 9.94,18.18c1.36,1.57 3.02,1.4 4.86,1.01c3.35,-0.92 6.61,-2.6 8.36,-5.74c1.87,-3.2 3.3,-6.68 4.85,-10.05c2.04,-4.97 4.49,-9.11 4.24,-14.68c0.14,-6.1 -1.06,-10.48 -4.27,-15.62z" id="p48"/>
  <path d="m708.44,503.52c5.51,-0.74 11.56,0.58 16.88,2.02c6.28,1.65 12.29,3.93 17.59,7.76c-0.29,7.87 -4.22,15.82 -7.84,22.69c-2.47,4.43 -5.8,10.19 -10.47,12.5c-4.19,0.42 -9.68,-0.17 -11.41,-4.71c-3.02,-6.33 -4.68,-13.32 -7.13,-19.9c-2.62,-6.47 -0.42,-14.3 2.38,-20.36z" id="p49"/>
  <path d="m855.56,503.4c3.21,5.14 4.41,9.52 4.27,15.62c0.25,5.57 -2.2,9.71 -4.24,14.68c-1.55,3.37 -2.98,6.85 -4.85,10.05c-1.75,3.14 -5.01,4.82 -8.36,5.74c-1.84,0.39 -3.5,0.56 -4.86,-1.01c-4.75,-5.24 -7.94,-11.42 -9.94,-18.18c-1.53,-5.12 -4.43,-10.07 -5.22,-15.34c-0.61,-3.06 3.16,-4.91 5.25,-6.38c4.85,-3.16 9.69,-2.68 15.14,-3.94c4.26,-0.97 8.42,-1.56 12.81,-1.24z" id="p50"/>
  <path d="m191.17,521.8c5.65,7.37 2.7,17.72 -0.12,25.64c-2.9,-3.58 -4.77,-7.74 -4.47,-12.44c0.48,-4.65 1.97,-9.3 4.59,-13.2z" id="p51"/>
  <path d="m805.42,537.49c7.83,3.88 14.63,9.14 20.92,15.15c2.64,2.57 6.32,5.53 6.64,9.44c0.38,3.81 -0.75,8.99 -2.63,12.33c-1.6,2.23 -4.89,3.3 -7.12,4.81c-5.72,3.68 -12.07,7.35 -18.62,9.32c-5.57,1.9 -11.69,-1.19 -16.53,-3.86c-2.51,-2.25 -2.22,-7.62 -2.11,-10.71c1,-9.67 1.76,-18.9 5.07,-27.97c1.21,-3.14 1.83,-7.31 4.1,-9.84c3.35,-2.77 7.06,-0.22 10.28,1.33zm8.05,12.01c-4.44,-2.92 -8.93,-7.83 -14.1,-9.2c-2.73,3.72 -4.49,8.12 -4.93,12.72c-0.89,9.6 -4.22,17.49 -2.7,27.37c0.44,3.72 5.14,5.24 8.29,5.61c4.58,-0.08 9.3,-2.71 13.47,-4.47c4.83,-2.33 10.07,-4.37 12.54,-9.52c1.58,-3.17 3.22,-8.13 1.32,-11.43c-3.56,-5.51 -8.64,-7.7 -13.89,-11.08z" id="p52"/>
  <path d="m765.17,536.73c1.47,-0.29 3.18,-0.61 4.07,0.92c2.63,4.41 4.26,9.52 5.9,14.36c2.25,8.7 3.95,18.05 3.26,27.05c-0.17,3.26 -2.57,5.54 -5.02,7.38c-3.5,2.41 -7.25,4.21 -11.58,2.98c-7.21,-2.04 -14.17,-5.6 -20.4,-9.73c-6.23,-3.47 -9.77,-12.91 -7.49,-19.59c2.08,-4.8 7.63,-8.39 11.59,-11.64c6.01,-5.08 11.9,-9.67 19.67,-11.73zm2.72,3.56c-4.28,0.93 -8.42,2.06 -12.16,4.44c-6.38,4.14 -12.6,6.42 -16.83,13.17c-3.31,4.46 -1.73,10.2 0.44,14.77c2.3,4.47 6.66,5.88 10.68,8.36c2.65,1.46 5.31,3.62 8.25,4.38c3.01,0.52 6.27,0.67 9.28,0.04c3.43,-0.94 5.76,-4.8 6.87,-7.96c1.32,-3.64 0.4,-7.26 0.07,-11.04c-0.48,-4.53 -1.35,-8.78 -2.78,-13.11c-1.51,-4.49 -1.72,-8.83 -3.82,-13.05z" id="p53"/>
  <path d="m767.89,540.29c2.1,4.22 2.31,8.56 3.82,13.05c1.43,4.33 2.3,8.58 2.78,13.11c0.33,3.78 1.25,7.4 -0.07,11.04c-1.11,3.16 -3.44,7.02 -6.87,7.96c-3.01,0.63 -6.27,0.48 -9.28,-0.04c-2.94,-0.76 -5.6,-2.92 -8.25,-4.38c-4.02,-2.48 -8.38,-3.89 -10.68,-8.36c-2.17,-4.57 -3.75,-10.31 -0.44,-14.77c4.23,-6.75 10.45,-9.03 16.83,-13.17c3.74,-2.38 7.88,-3.51 12.16,-4.44z" id="p54"/>
  <path d="m799.37,540.3c5.17,1.37 9.66,6.28 14.1,9.2c5.25,3.38 10.33,5.57 13.89,11.08c1.9,3.3 0.26,8.26 -1.32,11.43c-2.47,5.15 -7.71,7.19 -12.54,9.52c-4.17,1.76 -8.89,4.39 -13.47,4.47c-3.15,-0.37 -7.85,-1.89 -8.29,-5.61c-1.52,-9.88 1.81,-17.77 2.7,-27.37c0.44,-4.6 2.2,-9 4.93,-12.72z" id="p55"/>
  <path d="m632.98,546.51c2.52,4.32 3.48,8.75 5.32,13.38c0.94,2.35 1.71,4.88 1.99,7.4c-2.85,0.16 -5.41,0.08 -7.57,-2.02c-0.85,-5.85 -1,-12.96 0.26,-18.76z" id="p56"/>
  <path d="m292.51,550.22c2.29,4.01 3.96,7.93 6.65,11.65c5.04,6.98 11.25,13.19 15.09,20.94c3.42,6.57 5.46,13.66 9.08,20.11c4.51,-1.88 8.05,-5.94 10.62,-9.99c3.73,-5.87 1.96,-13.02 2.9,-19.91c7.48,8.79 8.78,19.14 14.49,28.68c1.02,1.85 2.38,3.08 4.12,4.22c2.6,-5.97 3.88,-12.05 7.54,-17.54c3.62,4.93 5.62,10.62 8.91,15.75c3.1,5.17 7.19,9.18 9.37,14.89c-1.43,1.19 -2.73,2.24 -4.66,2.41c-12.82,1.68 -26.16,0.11 -39.06,1.09c-16.62,1.97 -33.05,5.6 -49.56,6.79c-8.66,0.37 -17.36,0 -26.03,0.17c-7.04,0.03 -13.91,1.3 -20.98,0.86c-3.76,-0.24 -8.39,-0.33 -11.74,-2.21c2.96,-7.92 7.1,-15.77 11.94,-22.71c2.02,1.31 4.02,2.64 6,3.99c5.45,-3.72 7.21,-9.61 13.21,-12.4c0.41,4.64 0.65,9.33 1.39,13.93c0.41,1.84 0.69,4.08 2.39,5.21c2.54,0.93 5.18,-0.27 7.2,-1.81c3.1,-2.47 5.54,-5.96 7.72,-9.25c3.48,-5.5 6.68,-11.72 7.73,-18.2c1.68,-9.87 -0.36,-20.23 1.13,-30.07c0.74,-2.23 1.44,-6.89 4.55,-6.6z" id="p57"/>
  <path d="m267.11,550.23c3.68,5.25 4.31,12.02 1.82,17.92c-1.54,-0.16 -3.09,-0.29 -4.64,-0.31c-0.78,-4.69 -1.36,-9.93 -0.38,-14.62c0.91,-1.18 2.05,-2.04 3.2,-2.99z" id="p58"/>
  <path d="m529.32,572.07c3.15,0.42 6.5,0.33 9.68,0.32c5.49,-0.06 10.85,0.23 16.31,-0.52c6.28,-0.79 12.39,-0.45 18.69,-0.47c5.69,0.01 11.15,-0.28 16.84,0.36c7.32,0.98 14.84,0.56 22.23,0.67c5.65,0.17 9.28,-3.84 14.95,-2.91c4.69,0.68 10.04,0.94 14.35,3.01c2.75,2.68 4.39,6.67 6.3,9.97c3.1,5.51 6.06,11.79 10.71,16.08c2.39,2.28 4.67,4.7 7.15,6.88c3.52,3.05 7.86,3.71 10.8,7.59c-5.13,1 -10.15,0.65 -15.33,0.64c-8.49,0 -16.86,-0.24 -25.3,0.92c-7.72,1.23 -15.73,1.07 -23.53,0.72c-8.69,-1.07 -17.41,-1.63 -26.17,-1.54c-12.01,-0.05 -24.02,-0.02 -36.02,-0.09c-5.71,0.03 -11.29,-1.11 -16.98,-1.12c-10.94,-0.07 -22.1,0.26 -33,-0.71c-7.92,-0.6 -16.04,-0.33 -24,-0.37c-8.96,0.1 -18.14,-0.39 -27,0.57c-8.28,0.73 -16.69,0.21 -25,0.4c-3.91,-0.02 -8,0.35 -11.87,-0.3c-0.78,-0.62 -1.26,-1.5 -1.45,-2.63c-2.04,-10.62 -1.68,-21.54 1.75,-31.83c0.87,-2.2 1.86,-4.11 4.55,-4.09c14.29,-0.46 28.66,0.14 42.95,-0.3c12.19,-1.35 24.6,-1.24 36.72,-3.15c10.19,-1.79 21.53,0.26 31.67,1.9z" id="p59"/>
  <path d="m460,613.77c13.31,0.16 25.89,-0.62 39.1,1.02c8.12,1.29 16.49,0.65 24.9,0.8c12.63,0.14 25.42,-0.54 38,0.64c7.01,0.36 13.98,0.01 20.97,0.97c4.9,0.65 11.23,-0.19 15.4,2.72c-5.54,0.85 -10.75,0.49 -16.37,0.58c-12.33,-0.06 -24.72,0.37 -37.03,-0.26c-6.64,-0.86 -13.31,-0.58 -19.96,-1.17c-7.05,-0.83 -13.9,-0.67 -21.01,-0.85c-8,-0.06 -16.25,-0.26 -24.2,0.74c-3.25,0.41 -6.52,0.56 -9.8,0.57c-13.67,0.02 -27.34,-0.26 -41,-0.09c-3.99,0.03 -8.08,0.35 -12.05,-0.09c-1.85,-0.12 -3.17,-1.15 -4.53,-2.29c6.01,-2.06 12.79,-1.79 19.12,-2.72c9.6,-1.39 18.82,-0.49 28.46,-0.57z" id="p60"/>
  <path d="m581.04,650.38c8.84,0.57 17.25,4.95 22.22,12.38c4.61,6.92 5.85,15.08 6.07,23.24c-0.02,21.66 -0.01,43.33 0,65c0.12,8.65 0.16,17.86 -3.25,26c-2.93,7.16 -8.74,13.07 -16.06,15.7c-6.27,2.44 -13.41,2.25 -20.04,1.94c-9.14,-0.59 -17.69,-5.16 -22.63,-12.95c-4.61,-7.29 -5.46,-15.26 -5.61,-23.69c0.02,-22.66 0.03,-45.33 0,-67.99c-0.01,-7.47 0.36,-15.99 3.55,-22.85c2.85,-6.43 8.06,-11.55 14.53,-14.31c6.61,-3.01 14.11,-2.83 21.22,-2.47zm-17.33,40.63c0.02,23.34 0,46.69 0,70.04c0.05,4.01 1.1,9.24 4.42,11.83c4.33,3.08 11.15,3.02 15.27,-0.42c3.25,-2.86 3.82,-8.35 3.9,-12.41c-0.01,-25.03 -0.01,-50.07 0,-75.1c-0.07,-4.12 -0.7,-9.42 -3.92,-12.38c-2.9,-2.6 -6.59,-2.69 -10.28,-2.37c-3.34,0.33 -6.18,2.32 -7.61,5.36c-2.37,4.91 -1.7,10.15 -1.78,15.45z" id="p61"/>
  <path d="m274.49,651.56c0.09,47.3 0.08,94.6 0,141.9c-6.81,0.07 -13.63,0 -20.44,0.05c-0.66,-4.9 -0.34,-9.59 -0.38,-14.51c0,-24.66 0,-49.33 0,-74c0.01,-3.69 -0.06,-7.38 -0.25,-11.08c-1.89,7.14 -2.47,14.74 -3.74,22.09c-3.89,25.76 -7.93,51.51 -11.57,77.31c-7.02,0.26 -14.13,0.31 -21.14,-0.02c-4.39,-27.8 -9.02,-55.57 -13.65,-83.34c-0.78,-5.01 -1.58,-10.1 -2.68,-15.05c-0.55,7.99 -0.23,16.07 -0.31,24.09c-0.07,24.77 0.14,49.56 -0.11,74.33c-6.33,0.23 -12.69,0.32 -19.02,-0.05c0,-47.17 -0.01,-94.37 0.01,-141.54c8.59,-0.45 17.21,-0.07 25.82,-0.23c1.42,0.15 3.53,-0.28 4.66,0.71c1.02,3.1 1.28,6.51 1.83,9.73c4.05,24.84 8.04,49.71 12.07,74.56c0.92,5.16 1.48,10.31 2.79,15.4c1.78,-8.25 2.72,-16.69 4.01,-25.03c3.87,-25.03 7.42,-50.17 11.43,-75.17c10.2,-0.38 20.45,-0.09 30.67,-0.15z" id="p62"/>
  <path d="m457.3,651.6c7.1,-0.2 14.23,0 21.34,-0.06c0.23,20.28 -0.09,40.57 0.16,60.85c8.43,0.27 17.05,0.28 25.47,0.01c0.21,-20.18 0.05,-40.36 0.08,-60.53c7.14,-0.52 15.14,-0.59 22.28,0.03c-0.15,47.18 0.05,94.38 -0.1,141.56c-7.37,0.05 -14.74,0.04 -22.1,0.01c-0.16,-15.15 -0.02,-30.31 -0.07,-45.47c-0.08,-5.17 0.33,-10.47 -0.37,-15.51c-8.3,0.03 -16.6,0.02 -24.89,0c-0.69,5.41 -0.31,10.93 -0.38,16.51c-0.06,14.82 0.09,29.65 -0.07,44.48c-7.16,0.03 -14.32,-0.01 -21.48,0.02c-0.6,-5.18 -0.33,-10.3 -0.36,-15.5c-0.01,-38.33 0.01,-76.67 -0.01,-115c0.06,-3.73 -0.3,-7.74 0.5,-11.4z" id="p63"/>
  <path d="m668.67,651.68c6.9,-0.35 13.85,-0.07 20.75,-0.11c0.05,35.82 0,71.65 0.02,107.47c-0.02,7.99 -1.17,16.06 -5.47,22.95c-3.7,6.05 -9.88,10.17 -16.71,11.89c-8.7,2.06 -18.35,1.77 -26.69,-1.62c-6.59,-2.68 -11.5,-8.12 -14.23,-14.61c-2.4,-5.61 -3.14,-11.54 -3.11,-17.61c-0.01,-36.09 -0.01,-72.19 0,-108.28c7.28,-0.39 14.61,-0.29 21.9,-0.07c0.27,32.76 0.04,65.55 0.12,98.31c0.09,5.16 -0.32,10.44 0.34,15.56c0.56,4.43 3.86,8.71 8.51,9.13c3.64,0.31 7.5,0.43 10.41,-2.14c3.35,-2.92 4.02,-7.31 4.05,-11.53c-0.02,-33.01 0,-66.01 -0.01,-99.02c0.03,-3.43 -0.17,-6.9 0.12,-10.32z" id="p64"/>
  <path d="m741.06,650.46c8.03,0.77 15.59,4.51 20.26,11.22c5.82,8.41 6.57,18.09 6.33,28.02c-6.98,0.07 -13.96,0.17 -20.94,-0.08c-0.07,-4.95 0.72,-11.7 -2.49,-15.81c-3.01,-4.03 -8.23,-4.33 -12.76,-3.27c-3.6,1.12 -5.99,4.36 -6.71,7.97c-1.12,7.29 -0.34,14.67 3.92,20.87c9.15,13.18 25.89,23.17 33.5,37.44c5.89,10.44 6.82,22.54 4.56,34.15c-1.87,9.2 -7.5,17.5 -16.32,21.2c-6.66,2.88 -13.34,2.8 -20.45,2.51c-9.11,-0.57 -18.02,-4.75 -22.88,-12.73c-5.72,-9.08 -5.85,-20.22 -5.54,-30.59c6.93,-0.3 13.92,-0.34 20.85,0.01c0.43,6.06 -1.28,14.51 2.63,19.54c3.01,4.05 8.06,4.3 12.64,3.57c4.02,-0.9 6.72,-4.23 7.61,-8.14c1.29,-7.15 0.24,-14.61 -3.92,-20.68c-6.5,-9.46 -16.21,-16.37 -24.03,-24.98c-4.64,-4.63 -8.44,-9.84 -11.12,-15.85c-4.28,-8.98 -4.69,-19.72 -3.1,-29.4c1.45,-8.34 5.35,-15.94 12.59,-20.64c7.8,-4.88 16.47,-4.95 25.37,-4.33z" id="p65"/>
  <path d="m781.4,651.62c19.94,-0.16 39.98,-0.1 59.92,-0.02c0.01,6.64 0,13.28 0.02,19.92c-12.75,0.33 -25.52,-0.22 -38.26,0.27c-0.53,6.1 -0.22,12.06 -0.28,18.21c0.07,7.1 -0.2,14.23 0.18,21.32c10.11,0.51 20.26,0.02 30.38,0.24c-0.13,6.64 0.38,13.39 -0.28,19.99c-9.95,0 -19.9,-0.01 -29.85,-0.02c-0.81,6.05 -0.32,12.29 -0.43,18.47c0.09,7.75 -0.23,15.53 0.19,23.28c12.63,0.42 25.29,0.05 37.92,0.17c0.79,6.56 0.36,13.3 0.3,19.9c-7.06,0.31 -14.14,0.08 -21.21,0.14c-12.93,-0.13 -25.89,0.27 -38.8,-0.2c-0.01,-43.76 0.01,-87.52 -0.01,-131.29c0.03,-3.44 -0.18,-6.95 0.21,-10.38z" id="p66"/>
  <path d="m307.94,652.49c0.76,-1.16 2.78,-0.84 3.98,-0.97c9.45,0.06 18.9,-0.05 28.34,0.08c1.3,5.24 1.84,10.58 2.73,15.9c6.38,39.53 12.65,79.04 19.07,118.58c0.42,2.45 0.63,4.92 0.79,7.4c-7.33,-0.05 -14.68,0.18 -22,-0.15c-1.39,-8.56 -2.04,-17.32 -4.09,-25.75c-9.08,0.12 -18.17,-0.01 -27.25,0.08c-1.77,8.55 -2.22,17.41 -4.36,25.86c-6.57,-0.11 -13.14,0.09 -19.72,-0.14c0.52,-3.79 1.07,-7.59 1.69,-11.37c6.99,-42.66 13.91,-86.64 20.82,-129.52zm4.4,96.07c7.18,0.16 14.37,0.12 21.56,0.04c-2.78,-21.24 -6.34,-42.39 -9.22,-63.62c-0.34,-2.36 -0.66,-4.7 -1.38,-6.98c-1.11,1.82 -1.14,4.27 -1.54,6.35c-3,21.41 -6.59,42.78 -9.42,64.21z" id="p67"/>
  <path d="m374.12,651.71c11.29,-0.38 22.6,-0.07 33.9,-0.17c8.88,0.11 18.69,1.61 25.19,8.25c7.06,6.89 8.79,16.74 9.12,26.21c0.02,23.99 0,48.01 0.01,72.01c-0.22,9.31 -1.58,19.07 -8.08,26.24c-6.26,7.14 -16.17,9.19 -25.26,9.25c-11.63,-0.12 -23.29,0.21 -34.92,-0.17c-0.3,-4.11 -0.31,-8.22 -0.25,-12.33c0,-37.33 -0.01,-74.67 0,-112c0.03,-5.78 -0.21,-11.52 0.29,-17.29zm22.15,121.75c4.87,-0.06 9.77,0.2 14.63,-0.11c3.56,-0.21 6.51,-2.6 7.95,-5.79c1.81,-4.1 1.46,-8.19 1.5,-12.56c-0.04,-23.02 -0.02,-46.05 -0.01,-69.07c-0.02,-4.03 -0.63,-8.63 -3.71,-11.55c-2.07,-2.09 -4.79,-2.7 -7.64,-2.76c-4.18,-0.05 -8.39,-0.17 -12.57,0.06c-0.53,2.08 -0.62,4.16 -0.64,6.29c0.06,26.34 0.01,52.69 0.03,79.03c0.05,5.53 -0.29,10.95 0.46,16.46z" id="p68"/>
  <path d="m573.1,670.2c3.69,-0.32 7.38,-0.23 10.28,2.37c3.22,2.96 3.85,8.26 3.92,12.38c-0.01,25.03 -0.01,50.07 0,75.1c-0.08,4.06 -0.65,9.55 -3.9,12.41c-4.12,3.44 -10.94,3.5 -15.27,0.42c-3.32,-2.59 -4.37,-7.82 -4.42,-11.83c0,-23.35 0.02,-46.7 0,-70.04c0.08,-5.3 -0.59,-10.54 1.78,-15.45c1.43,-3.04 4.27,-5.03 7.61,-5.36z" id="p69"/>
  <path d="m396.42,671.68c4.18,-0.23 8.39,-0.11 12.57,-0.06c2.85,0.06 5.57,0.67 7.64,2.76c3.08,2.92 3.69,7.52 3.71,11.55c-0.01,23.02 -0.03,46.05 0.01,69.07c-0.04,4.37 0.31,8.46 -1.5,12.56c-1.44,3.19 -4.39,5.58 -7.95,5.79c-4.86,0.31 -9.76,0.05 -14.63,0.11c-0.75,-5.51 -0.41,-10.93 -0.46,-16.46c-0.02,-26.34 0.03,-52.69 -0.03,-79.03c0.02,-2.13 0.11,-4.21 0.64,-6.29z" id="p70"/>
  <path d="m323.3,678c0.72,2.28 1.04,4.62 1.38,6.98c2.88,21.23 6.44,42.38 9.22,63.62c-7.19,0.08 -14.38,0.12 -21.56,-0.04c2.83,-21.43 6.42,-42.8 9.42,-64.21c0.4,-2.08 0.43,-4.53 1.54,-6.35z" id="p71"/>
 </defs>
 <g class="layer">
  <title>Layer 1</title>
  <g id="svg_1" stroke-width="10pt">
   <use id="svg_2" stroke="#292d36" xlink:href="#p0"/>
   <use id="svg_3" stroke="#dd0102" xlink:href="#p1"/>
   <use id="svg_4" stroke="#dd0102" xlink:href="#p2"/>
   <use id="svg_5" stroke="#dd0102" xlink:href="#p3"/>
   <use id="svg_6" stroke="#dd0102" xlink:href="#p4"/>
   <use id="svg_7" stroke="#dd0102" xlink:href="#p5"/>
   <use id="svg_8" stroke="#dd0102" xlink:href="#p6"/>
   <use id="svg_9" stroke="#dd0102" xlink:href="#p7"/>
   <use id="svg_10" stroke="#dd0102" xlink:href="#p8"/>
   <use id="svg_11" stroke="#dd0102" xlink:href="#p9"/>
   <use id="svg_12" stroke="#dd0102" xlink:href="#p10"/>
   <use id="svg_13" stroke="#dd0102" xlink:href="#p11"/>
   <use id="svg_14" stroke="#dd0102" xlink:href="#p12"/>
   <use id="svg_15" stroke="#dd0102" xlink:href="#p13"/>
   <use id="svg_16" stroke="#dd0102" xlink:href="#p14"/>
   <use id="svg_17" stroke="#dd0102" xlink:href="#p15"/>
   <use id="svg_18" stroke="#dd0102" xlink:href="#p16"/>
   <use id="svg_19" stroke="#dd0102" xlink:href="#p17"/>
   <use id="svg_20" stroke="#dd0102" xlink:href="#p18"/>
   <use id="svg_21" stroke="#dd0102" xlink:href="#p19"/>
   <use id="svg_22" stroke="#292d36" xlink:href="#p20"/>
   <use id="svg_23" stroke="#dd0102" xlink:href="#p21"/>
   <use id="svg_24" stroke="#dd0102" xlink:href="#p22"/>
   <use id="svg_25" stroke="#292d36" xlink:href="#p23"/>
   <use id="svg_26" stroke="#dd0102" xlink:href="#p24"/>
   <use id="svg_27" stroke="#dd0102" xlink:href="#p25"/>
   <use id="svg_28" stroke="#292d36" xlink:href="#p26"/>
   <use id="svg_29" stroke="#dd0102" xlink:href="#p27"/>
   <use id="svg_30" stroke="#dd0102" xlink:href="#p28"/>
   <use id="svg_31" stroke="#dd0102" xlink:href="#p29"/>
   <use id="svg_32" stroke="#dd0102" xlink:href="#p30"/>
   <use id="svg_33" stroke="#292d36" xlink:href="#p31"/>
   <use id="svg_34" stroke="#292d36" xlink:href="#p32"/>
   <use id="svg_35" stroke="#dd0102" xlink:href="#p33"/>
   <use id="svg_36" stroke="#dd0102" xlink:href="#p34"/>
   <use id="svg_37" stroke="#dd0102" xlink:href="#p35"/>
   <use id="svg_38" stroke="#dd0102" xlink:href="#p36"/>
   <use id="svg_39" stroke="#dd0102" xlink:href="#p37"/>
   <use id="svg_40" stroke="#292d36" xlink:href="#p38"/>
   <use id="svg_41" stroke="#dd0102" xlink:href="#p39"/>
   <use id="svg_42" stroke="#292d36" xlink:href="#p40"/>
   <use id="svg_43" stroke="#dd0102" xlink:href="#p41"/>
   <use id="svg_44" stroke="#dd0102" xlink:href="#p42"/>
   <use id="svg_45" stroke="#dd0102" xlink:href="#p43"/>
   <use id="svg_46" stroke="#dd0102" xlink:href="#p44"/>
   <use id="svg_47" stroke="#dd0102" xlink:href="#p45"/>
   <use id="svg_48" stroke="#dd0102" xlink:href="#p46"/>
   <use id="svg_49" stroke="#292d36" xlink:href="#p47"/>
   <use id="svg_50" stroke="#292d36" xlink:href="#p48"/>
   <use id="svg_51" stroke="#dd0102" xlink:href="#p49"/>
   <use id="svg_52" stroke="#dd0102" xlink:href="#p50"/>
   <use id="svg_53" stroke="#dd0102" xlink:href="#p51"/>
   <use id="svg_54" stroke="#292d36" xlink:href="#p52"/>
   <use id="svg_55" stroke="#292d36" xlink:href="#p53"/>
   <use id="svg_56" stroke="#dd0102" xlink:href="#p54"/>
   <use id="svg_57" stroke="#dd0102" xlink:href="#p55"/>
   <use id="svg_58" stroke="#dd0102" xlink:href="#p56"/>
   <use id="svg_59" stroke="#dd0102" xlink:href="#p57"/>
   <use id="svg_60" stroke="#292d36" xlink:href="#p58"/>
   <use id="svg_61" stroke="#dd0102" xlink:href="#p59"/>
   <use id="svg_62" stroke="#dd0102" xlink:href="#p60"/>
   <use id="svg_63" stroke="#ffffff" xlink:href="#p61"/>
   <use id="svg_64" stroke="#ffffff" xlink:href="#p62"/>
   <use id="svg_65" stroke="#ffffff" xlink:href="#p63"/>
   <use id="svg_66" stroke="#ffffff" xlink:href="#p64"/>
   <use id="svg_67" stroke="#ffffff" xlink:href="#p65"/>
   <use id="svg_68" stroke="#ffffff" xlink:href="#p66"/>
   <use id="svg_69" stroke="#ffffff" xlink:href="#p67"/>
   <use id="svg_70" stroke="#ffffff" xlink:href="#p68"/>
   <use id="svg_71" stroke="#292d36" xlink:href="#p69"/>
   <use id="svg_72" stroke="#292d36" xlink:href="#p70"/>
   <use id="svg_73" stroke="#292d36" xlink:href="#p71"/>
  </g>
  <g id="svg_74">
   <use fill="#171a1d" id="svg_75" transform="matrix(1 0 0 1 0 0)" xlink:href="#p0"/>
   <use fill="#dd0102" id="svg_76" xlink:href="#p1"/>
   <use fill="#dd0102" id="svg_77" xlink:href="#p2"/>
   <use fill="#dd0102" id="svg_78" xlink:href="#p3"/>
   <use fill="#dd0102" id="svg_79" xlink:href="#p4"/>
   <use fill="#dd0102" id="svg_80" xlink:href="#p5"/>
   <use fill="#dd0102" id="svg_81" xlink:href="#p6"/>
   <use fill="#dd0102" id="svg_82" xlink:href="#p7"/>
   <use fill="#dd0102" id="svg_83" xlink:href="#p8"/>
   <use fill="#dd0102" id="svg_84" xlink:href="#p9"/>
   <use fill="#dd0102" id="svg_85" xlink:href="#p10"/>
   <use fill="#dd0102" id="svg_86" xlink:href="#p11"/>
   <use fill="#dd0102" id="svg_87" xlink:href="#p12"/>
   <use fill="#dd0102" id="svg_88" xlink:href="#p13"/>
   <use fill="#dd0102" id="svg_89" xlink:href="#p14"/>
   <use fill="#dd0102" id="svg_90" xlink:href="#p15"/>
   <use fill="#dd0102" id="svg_91" xlink:href="#p16"/>
   <use fill="#dd0102" id="svg_92" xlink:href="#p17"/>
   <use fill="#dd0102" id="svg_93" xlink:href="#p18"/>
   <use fill="#dd0102" id="svg_94" xlink:href="#p19"/>
   <use fill="#171a1d" id="svg_95" xlink:href="#p20"/>
   <use fill="#dd0102" id="svg_96" xlink:href="#p21"/>
   <use fill="#dd0102" id="svg_97" xlink:href="#p22"/>
   <use fill="#171a1d" id="svg_98" xlink:href="#p23"/>
   <use fill="#dd0102" id="svg_99" xlink:href="#p24"/>
   <use fill="#dd0102" id="svg_100" xlink:href="#p25"/>
   <use fill="#292d36" id="svg_101" xlink:href="#p26"/>
   <use fill="#dd0102" id="svg_102" xlink:href="#p27"/>
   <use fill="#dd0102" id="svg_103" xlink:href="#p28"/>
   <use fill="#dd0102" id="svg_104" xlink:href="#p29"/>
   <use fill="#dd0102" id="svg_105" xlink:href="#p30"/>
   <use fill="#292d36" id="svg_106" xlink:href="#p31"/>
   <use fill="#292d36" id="svg_107" xlink:href="#p32"/>
   <use fill="#dd0102" id="svg_108" xlink:href="#p33"/>
   <use fill="#dd0102" id="svg_109" xlink:href="#p34"/>
   <use fill="#dd0102" id="svg_110" xlink:href="#p35"/>
   <use fill="#dd0102" id="svg_111" xlink:href="#p36"/>
   <use fill="#dd0102" id="svg_112" xlink:href="#p37"/>
   <use fill="#171a1d" id="svg_113" xlink:href="#p38"/>
   <use fill="#dd0102" id="svg_114" xlink:href="#p39"/>
   <use fill="#171a1d" id="svg_115" xlink:href="#p40"/>
   <use fill="#dd0102" id="svg_116" xlink:href="#p41"/>
   <use fill="#dd0102" id="svg_117" xlink:href="#p42"/>
   <use fill="#dd0102" id="svg_118" xlink:href="#p43"/>
   <use fill="#dd0102" id="svg_119" xlink:href="#p44"/>
   <use fill="#dd0102" id="svg_120" xlink:href="#p45"/>
   <use fill="#dd0102" id="svg_121" xlink:href="#p46"/>
   <use fill="#292d36" id="svg_122" xlink:href="#p47"/>
   <use fill="#292d36" id="svg_123" xlink:href="#p48"/>
   <use fill="#dd0102" id="svg_124" xlink:href="#p49"/>
   <use fill="#dd0102" id="svg_125" xlink:href="#p50"/>
   <use fill="#dd0102" id="svg_126" xlink:href="#p51"/>
   <use fill="#292d36" id="svg_127" xlink:href="#p52"/>
   <use fill="#292d36" id="svg_128" xlink:href="#p53"/>
   <use fill="#dd0102" id="svg_129" xlink:href="#p54"/>
   <use fill="#dd0102" id="svg_130" xlink:href="#p55"/>
   <use fill="#dd0102" id="svg_131" xlink:href="#p56"/>
   <use fill="#dd0102" id="svg_132" xlink:href="#p57"/>
   <use fill="#171a1d" id="svg_133" xlink:href="#p58"/>
   <use fill="#dd0102" id="svg_134" xlink:href="#p59"/>
   <use fill="#dd0102" id="svg_135" xlink:href="#p60"/>
   <use fill="#ffffff" id="svg_136" xlink:href="#p61"/>
   <use fill="#ffffff" id="svg_137" xlink:href="#p62"/>
   <use fill="#ffffff" id="svg_138" xlink:href="#p63"/>
   <use fill="#ffffff" id="svg_139" xlink:href="#p64"/>
   <use fill="#ffffff" id="svg_140" xlink:href="#p65"/>
   <use fill="#ffffff" id="svg_141" xlink:href="#p66"/>
   <use fill="#ffffff" id="svg_142" xlink:href="#p67"/>
   <use fill="#ffffff" id="svg_143" xlink:href="#p68"/>
   <use fill="#171a1d" id="svg_144" xlink:href="#p69"/>
   <use fill="#171a1d" id="svg_145" xlink:href="#p70"/>
   <use fill="#171a1d" id="svg_146" xlink:href="#p71"/>
  </g>
 </g>
</svg>